<svg xmlns="http://www.w3.org/2000/svg" width="1254" height="1254" viewBox="0 0 5016 5016">
<defs>
  <clipPath id="rounded-frame"><rect width="5016" height="5016" rx="500" ry="500"></rect></clipPath>
</defs>
<rect width="5016" height="5016" rx="500" ry="500" fill="#fdfdfd" data-index="0"></rect>
<g clip-path="url(#rounded-frame)" transform="translate(752.4 752.4) scale(0.7)">
<path fill="#5518e0" stroke="#5518e0" stroke-width="0.80" stroke-linejoin="round" fill-rule="evenodd" d="M621.5 14.19 c-4.4 .38 -13.62 1.17 -20.5 1.75 -21.16 1.79 -26.83 2.6 -61
8.67 -10.91 1.94 -37.62 8.45 -55.31 13.47 -14.59 4.15 -38.19 12.72 -55.69
20.23 -5.77 2.48 -16.68 7.47 -24.23 11.1 -7.55 3.62 -14.02 6.59 -14.38 6.59
-1.07 0 -24.03 12.75 -38.39 21.31 -17.59 10.49 -43.08 27.51 -56.68 37.84
-27.27 20.71 -51.19 42.05 -75.39 67.27 -18.66 19.45 -36.81 40.61 -49 57.14
-25.73 34.88 -32.05 44.4 -48.41 72.93 -14.62 25.49 -28.76 53.78 -39.91
79.83 -5.69 13.29 -13.04 31.82 -16.33 41.17 -7.36 20.89 -12.07 36.89 -23.21
78.76 -2.94 11.06 -5.91 24.51 -8.21 37.24 -2.28 12.6 -6.35 41.52 -7.81 55.5
-.54 5.23 -1.55 14.45 -2.24 20.5 -.99 8.74 -1.25 382.02 -1.28 1816.5 -.02
993.03 .26 1838.12 .61 1878 .37 42.15 1.11 76.9 1.77 83 1.78 16.54 5.98
46.46 8.22 58.5 3.71 19.95 13.71 58.64 20.95 81 8.23 25.44 14.34 42.08
20.38 55.5 2.35 5.23 5.52 12.43 7.06 16 6.4 14.93 22.74 47.64 30.03 60.1
9.53 16.3 29.07 46.02 41.23 62.73 4.94 6.78 14.34 18.79 20.9 26.69 6.56 7.9
20.45 23.23 30.88 34.08 17.32 18.02 39.04 38.07 56.96 52.56 24.39 19.73
34.4 27.18 52.58 39.15 11.22 7.39 27.61 17.4 36.41 22.24 15.79 8.69 47.95
24.22 64.5 31.15 26.33 11.03 53.09 19.65 80 25.77 6.32 1.44 14.41 3.3 17.96
4.14 9.29 2.18 24.07 5.08 35.04 6.87 19.5 3.18 36.41 4.55 69 5.58 22.96 .73
211.95 .9 600.5 .55 311.85 -.28 569.03 -.64 571.5 -.81 l4.5 -.3 .2 -171.84
c.11 -94.51 -.12 -174.38 -.51 -177.5 -.7 -5.58 -.9 -5.47 -4.34 -5.81 -1.92
-.19 -251.98 -.71 -555.85 -.91 -380.7 -.25 -558.96 -.71 -573.27 -1.46
-11.74 -.62 -25.22 -1.94 -31 -3.05 -5.63 -1.08 -12.98 -2.4 -16.35 -2.95
-10.21 -1.65 -28.99 -7.79 -46.27 -15.14 -9.01 -3.83 -22.29 -10.35 -29.5
-14.5 -7.21 -4.14 -17.39 -10.58 -22.62 -14.31 -5.23 -3.73 -15.9 -12.8
-23.72 -20.16 -18.44 -17.35 -33.32 -34.5 -42.77 -49.3 -5.58 -8.75 -14.61
-24.83 -20.39 -36.35 -15.14 -30.17 -22.86 -61.58 -27.72 -112.74 -1.48
-15.56 -1.64 -169.48 -1.96 -1812 -.21 -1054.02 .02 -1812.54 .56 -1837.5 1
-47.06 2.3 -62.89 8.09 -99 1.87 -11.63 4.14 -20.93 10.62 -43.5 2.83 -9.85
11.85 -31.67 18.86 -45.62 7.05 -14.03 20.79 -36.96 29.16 -48.66 8.97 -12.53
28.88 -34.88 40 -44.89 4.28 -3.85 11.61 -9.94 16.28 -13.54 10.84 -8.32
27.85 -19.52 38.4 -25.27 10.98 -5.99 32.99 -15.96 44.1 -19.98 4.95 -1.79
14.85 -4.62 22 -6.29 28.45 -6.63 62.49 -9.96 90.5 -8.85 9.08 .36 534.67 .61
1168 .57 633.32 -.05 1156.66 -.19 1162.97 -.31 9.86 -.19 11.72 .03 13.25
1.56 1.71 1.71 1.79 26.61 1.87 577.03 .05 316.39 .27 581.1 .5 588.25 .79
24.51 5.88 55.53 13.47 82.04 2.83 9.88 8.07 25.38 11.65 34.45 3.58 9.07
9.79 23.02 13.8 31 4.01 7.98 10.61 19.7 14.68 26.04 4.07 6.34 10.81 16.01
14.99 21.5 9.06 11.9 25.81 30.06 38.51 41.75 5.06 4.66 15.29 13.05 22.75
18.65 7.46 5.6 19.3 13.82 26.31 18.26 7.01 4.44 19.64 11.37 28.07 15.41
8.63 4.13 22.6 9.72 32 12.8 15.36 5.02 33.92 9.59 53.48 13.16 10.84 1.98
25.18 3.37 45.7 4.42 9.62 .49 143.95 1.04 298.5 1.2 379.33 .41 405.42 .4
563.43 -.17 l137.43 -.5 .79 3.04 c.43 1.67 .93 159.4 1.1 350.5 l.31 347.46
2.23 9.73 c2.92 12.73 10.11 32.89 15.19 42.57 2.22 4.24 7.05 11.98 10.72
17.2 8.86 12.6 28.26 31.86 39.79 39.49 4.95 3.28 15.07 9.01 22.5 12.75 7.43
3.73 18.9 8.53 25.5 10.65 12.43 4 28.46 7.28 44 9 13.29 1.47 40.1 .79 53
-1.34 19.36 -3.2 36.11 -7.98 50 -14.25 7.15 -3.23 15.93 -7.85 19.5 -10.26
13.16 -8.88 21.84 -16.07 30.36 -25.11 4.8 -5.1 11.18 -12.54 14.19 -16.53 3
-3.99 8.36 -12.58 11.91 -19.07 3.55 -6.5 7.62 -15.41 9.05 -19.81 1.43 -4.4
3.75 -12.5 5.15 -18 l2.54 -10 .04 -490.53 c.04 -459.72 -.07 -491.18 -1.68
-501 -2.99 -18.14 -6.55 -34.76 -10.08 -47.04 -1.88 -6.53 -5.69 -17.62 -8.48
-24.65 -8.22 -20.76 -25.81 -51.47 -38.81 -67.78 -7.75 -9.72 -33.35 -39.64
-40.65 -47.51 -3.32 -3.58 -11.44 -12.77 -18.04 -20.42 -30.52 -35.37 -50.38
-58.16 -67 -76.86 -4.4 -4.95 -9.85 -11.3 -12.12 -14.11 -4.05 -5.02 -12.08
-14.16 -35.88 -40.84 -6.6 -7.4 -15.93 -18.13 -20.73 -23.86 -4.8 -5.72
-12.45 -14.51 -17 -19.53 -9.63 -10.63 -22.44 -25.29 -32.04 -36.68 -3.72
-4.42 -12.79 -14.82 -20.16 -23.12 -19.29 -21.74 -76.28 -87.14 -81.56 -93.6
-2.47 -3.02 -8.99 -10.59 -14.5 -16.82 -5.51 -6.24 -11.59 -13.23 -13.52
-15.55 -1.93 -2.31 -8.7 -10.04 -15.06 -17.16 -11.41 -12.78 -26.16 -29.79
-52.8 -60.86 -7.5 -8.75 -17.24 -19.93 -21.64 -24.86 -4.4 -4.93 -9.12 -10.41
-10.5 -12.18 -2.43 -3.13 -16.57 -19.31 -42 -48.04 -6.88 -7.77 -17.68 -20.15
-24 -27.51 -6.32 -7.36 -14.65 -16.82 -18.5 -21.01 -3.85 -4.19 -12.4 -13.85
-19 -21.47 -6.6 -7.61 -18.93 -21.53 -27.4 -30.93 -8.47 -9.4 -20.17 -22.68
-26 -29.52 -19.78 -23.2 -26.92 -31.32 -64.72 -73.62 -10.52 -11.77 -27.17
-30.7 -37 -42.07 -9.83 -11.37 -26.88 -30.76 -37.88 -43.1 -22.7 -25.46
-26.44 -29.7 -42.65 -48.37 -14.14 -16.28 -26.09 -29.76 -52.35 -59.02 -11
-12.26 -21.35 -23.95 -23 -25.97 -1.65 -2.02 -6.6 -7.7 -11 -12.62 -4.4 -4.92
-15.64 -17.69 -24.99 -28.38 -9.34 -10.69 -20.37 -23.07 -24.5 -27.52 -15.09
-16.24 -73.84 -81.65 -83.06 -92.49 -3.55 -4.17 -12.98 -14.74 -20.97 -23.5
-7.99 -8.76 -16.09 -17.76 -18 -20 -1.91 -2.24 -10.06 -11.24 -18.09 -20
-8.04 -8.76 -18.16 -20.01 -22.5 -25 -4.34 -4.99 -14.64 -16.49 -22.89 -25.54
-8.25 -9.05 -24.28 -26.79 -35.63 -39.42 -11.35 -12.63 -24.62 -26.78 -29.5
-31.46 -4.88 -4.68 -13.42 -11.96 -18.98 -16.2 -10.67 -8.13 -23.77 -16.45
-34.11 -21.67 -17.76 -8.96 -48.08 -18.92 -64.36 -21.15 -4.6 -.63 -8.6 -1.29
-8.89 -1.47 -4.29 -2.65 -48.42 -2.74 -1371.53 -2.88 -743.05 -.08 -1354.6
.17 -1359 .55z m2814.15 571.83 c4.32 4.66 10.74 11.85 14.27 15.98 8.61
10.06 16.19 18.62 37.57 42.41 18.15 20.19 33.5 37.39 72 80.61 11.55 12.97
31.12 34.78 43.5 48.46 12.38 13.69 26.48 29.41 31.36 34.95 35.12 39.93
60.44 68.42 67.99 76.48 4.86 5.2 15.76 17.36 24.21 27.02 16.86 19.28 32.01
36.23 52.02 58.21 7.19 7.9 16.64 18.46 21 23.48 13.94 16.04 42.15 48.06
67.4 76.5 13.49 15.19 26.94 30.49 29.9 34 2.95 3.51 14.94 16.95 26.63 29.88
11.69 12.93 24.12 26.92 27.63 31.1 3.5 4.18 10.15 11.83 14.76 17 4.62 5.17
13.17 14.76 19 21.31 5.83 6.55 14.88 16.7 20.11 22.56 14.77 16.55 42.01
47.51 47 53.41 6.93 8.2 57.3 65.86 67.46 77.23 4.97 5.56 17.59 19.91 28.04
31.89 10.45 11.98 24.4 27.85 31 35.28 6.6 7.43 13.1 14.9 14.44 16.61 1.34
1.71 6.3 7.38 11.01 12.61 4.72 5.22 11.93 13.32 16.02 18 4.1 4.68 10.28
11.49 13.74 15.15 3.46 3.66 6.29 7.32 6.29 8.13 0 .81 -1.24 1.97 -2.75 2.58
-1.99 .79 -115.19 1.04 -407.54 .87 -357.53 -.2 -404.89 -.4 -405.71 -1.72
-.51 -.82 -1.21 -3.8 -1.56 -6.62 -.87 -6.98 .2 -908.18 1.08 -911.61 .61
-2.38 .93 -2.57 2.49 -1.48 .98 .69 5.32 5.07 9.64 9.73z M1293 2539.09
c-28.87 .55 -31.06 .73 -40.97 3.29 -11.25 2.9 -24.54 7.89 -35.09 13.18
-11.45 5.73 -24.14 14.95 -35.58 25.83 -6.1 5.81 -14.48 15.03 -18.62 20.5
-7.63 10.08 -16.62 25.16 -21.72 36.43 -5.09 11.25 -9.02 23.77 -11 35.05
-1.08 6.13 -2.42 16.54 -2.98 23.14 -.72 8.43 -.7 15.12 .06 22.5 .6 5.78 2
15 3.11 20.5 2.16 10.67 8.81 30.24 14.42 42.44 5.72 12.44 15.91 26.62 28.33
39.41 6.35 6.54 15.28 14.7 19.85 18.13 14.74 11.07 32.43 20.11 50.7 25.93
9.09 2.89 27.27 6.59 32.5 6.6 1.92 0 5.08 .44 7 .96 2.2 .6 211.77 1.11 563
1.36 307.72 .22 575.93 .04 596 -.41 20.07 -.45 42.66 -1.27 50.18 -1.83 7.52
-.56 16.75 -1.72 20.5 -2.58 13.99 -3.2 36.12 -10.85 45.47 -15.71 5.31 -2.76
13.63 -8.01 18.5 -11.66 4.87 -3.65 13.59 -11.36 19.38 -17.14 7.16 -7.14
13.2 -14.46 18.87 -22.86 4.59 -6.8 10.34 -16.63 12.78 -21.86 7.52 -16.09
13.32 -34.24 16.3 -51.05 .61 -3.45 1.13 -14.25 1.16 -24 .04 -15.43 -.3
-19.4 -2.61 -30.58 -2.85 -13.78 -7.44 -27.98 -12.85 -39.8 -4.61 -10.07
-14.74 -26.89 -20.62 -34.25 -2.68 -3.35 -9.75 -10.88 -15.71 -16.73 -7.12
-6.99 -14.61 -13.1 -21.84 -17.82 -6.05 -3.95 -15.5 -9.36 -21 -12.02 -5.5
-2.66 -14.05 -6.2 -19 -7.87 -4.95 -1.67 -13.72 -4.03 -19.5 -5.25 l-10.5
-2.21 -589 -.1 c-323.95 -.05 -602.72 .16 -619.5 .49z M1296.5 3471.07
c-33.51 .62 -35.38 .76 -44 3.21 -4.95 1.41 -11.25 3.31 -14 4.22 -9 2.99
-32.87 15.53 -42.18 22.15 -5.01 3.56 -14.25 11.74 -20.53 18.17 -7.8 7.99
-13.8 15.32 -18.95 23.19 -4.14 6.32 -9.38 14.88 -11.64 19 -2.26 4.12 -5.29
10.65 -6.74 14.5 -1.45 3.85 -4.43 14.4 -6.63 23.44 -3.28 13.52 -4.13 19.1
-4.76 31.44 -.42 8.25 -.41 18.92 .04 23.72 .96 10.36 5.68 31.4 9.41 41.9
4.1 11.55 15.69 32.49 24.39 44.06 4.32 5.74 12.29 14.72 17.72 19.95 5.43
5.23 13.92 12.24 18.87 15.58 4.95 3.34 12.87 8.16 17.6 10.71 4.73 2.55
14.27 6.65 21.21 9.11 6.94 2.46 18.97 5.9 26.75 7.64 l14.14 3.16 592.16 .16
c325.69 .09 599.13 -.14 607.66 -.52 8.53 -.37 20.22 -1.37 26 -2.22 16.58
-2.44 34.92 -7.96 49 -14.74 6.88 -3.31 16.78 -8.88 22 -12.38 5.22 -3.5
13.78 -10.59 19 -15.76 5.27 -5.22 13.35 -14.81 18.15 -21.54 8.82 -12.38
18.31 -29.74 23.63 -43.21 1.63 -4.12 4.47 -13.57 6.33 -21 3.3 -13.23 3.37
-13.94 3.38 -35 .01 -18.65 -.3 -23.02 -2.34 -33 -1.29 -6.32 -4.12 -16.83
-6.29 -23.35 -2.17 -6.52 -5.7 -15.35 -7.86 -19.64 -2.15 -4.28 -7.62 -13.35
-12.14 -20.15 -6.29 -9.45 -11.43 -15.57 -21.8 -25.95 -7.61 -7.62 -16.64
-15.59 -20.57 -18.14 -12.66 -8.23 -24.52 -14.58 -34.32 -18.38 -5.31 -2.06
-11.68 -4.35 -14.16 -5.1 -2.48 -.75 -9.47 -2.35 -15.52 -3.55 l-11 -2.18
-583.5 -.07 c-320.93 -.04 -599.25 .22 -618.5 .58z" data-index="1"></path>
<path fill="#019790" stroke="#019790" stroke-width="0.80" stroke-linejoin="round" fill-rule="evenodd" d="M1751.5 1328.11 c-13.25 1.32 -27.31 3.91 -35.38 6.53 -4.19 1.36 -11.3 4.24
-15.79 6.41 -4.49 2.16 -12.14 6.6 -17 9.85 -7.51 5.03 -23.95 21.12 -109.66
107.34 -73.06 73.5 -102.49 103.75 -106.86 109.85 -3.32 4.63 -8.42 13.37
-11.34 19.42 -2.92 6.05 -6.46 14.82 -7.86 19.5 -1.4 4.68 -3.1 11.88 -3.76
16 -1.62 10.04 -1.59 33.71 .05 43 1.8 10.15 7 25.8 11.99 36.05 2.26 4.65
6.8 12.04 10.08 16.42 3.67 4.9 44.47 46.55 105.88 108.11 53.13 53.26 79.37
79.58 94.78 93.84 15.41 14.26 19.98 16.47 29.79 21.48 8.53 4.36 21.98 9.09
32.83 11.54 3.71 .84 11.81 2.19 18 3 9.74 1.28 12.99 1.29 24.25 .1 13.98
-1.48 30.05 -5.15 40.5 -9.25 10.46 -4.1 21.86 -10.33 30.03 -16.38 4.61
-3.42 46.77 -44.76 107.12 -105.03 65.86 -65.78 100.97 -101.55 103.81
-105.77 6.45 -9.58 15.32 -27.55 18.34 -37.13 5.88 -18.67 7.68 -34.13 5.77
-49.63 -1.38 -11.19 -5.02 -26.55 -8.46 -35.69 -3.83 -10.17 -11.48 -24.69
-17.2 -32.68 -3.64 -5.08 -37.85 -39.77 -105.94 -107.44 -80.38 -79.89
-102.21 -101.05 -108.76 -105.44 -9.05 -6.06 -24.65 -13.7 -34.7 -16.98 -8.76
-2.87 -22.96 -5.85 -31.5 -6.61 -3.85 -.35 -7.9 -.76 -9 -.92 -1.1 -.16 -5.6
.07 -10 .5z M4870 2879.92 c-21.9 3.74 -54.79 9.21 -75.75 12.61 -39.51 6.41
-51.7 8.36 -55.75 8.93 -7.82 1.1 -96.13 15.62 -103.5 17.02 -4.12 .78 -16.27
2.82 -27 4.53 -20.29 3.23 -45.83 7.34 -71.5 11.5 -24.26 3.93 -92.82 15.3
-108 17.91 -7.7 1.32 -24.35 4.06 -37 6.07 -12.65 2.02 -41.9 6.76 -65 10.53
-103.89 16.99 -191.36 31.08 -230 37.05 -27.38 4.23 -31.99 5.09 -37.22 6.93
-2.96 1.04 -8.17 3.46 -11.58 5.39 -3.41 1.92 -9.2 6 -12.88 9.07 -3.67 3.07
-8.79 8.38 -11.36 11.81 -2.58 3.43 -6.45 9.74 -8.6 14.02 -4.44 8.83 -8.43
22.65 -9.41 32.58 -.39 3.94 -.19 9.81 .48 14.18 .63 4.1 2.64 11.82 4.46
17.16 1.82 5.34 4.82 12.2 6.67 15.25 4.15 6.85 12.33 16.31 19.08 22.07 2.8
2.39 8.08 5.9 11.73 7.79 3.65 1.89 10.23 4.6 14.63 6.02 4.4 1.42 14.53 4.21
22.5 6.19 7.97 1.98 25.98 6.69 40 10.47 14.02 3.78 34.5 9.18 45.5 12.01 11
2.83 26.52 6.88 34.5 9.01 7.98 2.13 19.68 5.22 26 6.86 6.32 1.64 30.4 7.94
53.5 13.98 23.1 6.05 49.2 12.86 58 15.13 23.35 6.03 47.51 13.01 49.65 14.34
1.02 .64 1.85 1.65 1.85 2.25 0 2.6 -29.89 60.71 -48.83 94.93 -8.21 14.84
-24.1 42.25 -38.71 66.78 -45.33 76.1 -107.31 167.82 -157.38 232.88 -38.39
49.89 -74.16 93.98 -110.56 136.27 -9.91 11.51 -19.58 22.76 -21.49 25 -1.91
2.24 -13.16 14.64 -24.99 27.57 -38.49 42.05 -99.18 103.1 -141.57 142.41
-16.85 15.63 -62.15 55.91 -79.47 70.67 -24.16 20.59 -52.13 43.26 -87 70.53
-29.74 23.26 -55.03 42.04 -84 62.38 -5.78 4.06 -13.43 9.47 -17 12.03 -18.55
13.29 -56.88 38.96 -83.55 55.98 -21.81 13.92 -40.02 25.12 -70.95 43.65
-27.08 16.22 -37.16 21.99 -63.5 36.35 -12.38 6.74 -27.22 14.84 -33 17.99
-17.67 9.64 -84.4 43.37 -104 52.57 -46.73 21.93 -53.14 24.8 -97.5 43.72
-33.3 14.21 -44.01 18.57 -69.19 28.22 -10.89 4.17 -23.18 8.9 -27.31 10.49
-11.34 4.39 -30.46 11.46 -50.5 18.67 -26.25 9.45 -91.4 30.71 -117 38.19
-54.21 15.84 -76.36 21.95 -102 28.15 -11.55 2.79 -28.2 6.84 -37 8.98 -32.22
7.86 -48.28 11.36 -92 20.03 -11.55 2.29 -25.72 5 -31.5 6.02 -5.78 1.02
-15.45 2.75 -21.5 3.86 -14.57 2.66 -69.51 11.4 -91.5 14.55 -48.63 6.98
-123.08 14.27 -168.5 16.5 -11 .54 -28.78 1.46 -39.5 2.04 -10.72 .58 -29.61
1.42 -41.96 1.88 -12.35 .45 -118.68 .92 -236.29 1.03 -117.6 .11 -214.23 .21
-214.9 .47 -.95 .36 -1.29 39.47 -1.06 177.37 .23 136.31 .57 176.89 1.5
177.51 .66 .44 100.88 .63 222.7 .43 149.08 -.25 227.22 -.74 239 -1.5 9.62
-.62 25.6 -1.61 35.5 -2.19 19.87 -1.18 64.04 -4.92 95 -8.05 50.48 -5.1
130.9 -15.46 166.5 -21.44 7.97 -1.34 23.28 -3.84 34 -5.57 33.82 -5.43 85.42
-15.06 111.5 -20.82 9.9 -2.18 19.8 -4.29 22 -4.67 7.95 -1.4 45.35 -10.14 90
-21.05 56.56 -13.81 103.05 -26.52 163 -44.55 40.27 -12.11 129.52 -41.96
168.54 -56.36 8.5 -3.14 39.53 -15.28 68.96 -26.98 46.78 -18.6 84.53 -34.76
131.5 -56.29 7.15 -3.28 17.5 -8.02 23 -10.53 5.5 -2.52 19.9 -9.48 32 -15.47
12.1 -5.99 23.8 -11.72 26 -12.73 6.69 -3.07 75.98 -39.22 92.45 -48.24 23.02
-12.6 62.71 -35.01 69.55 -39.27 3.3 -2.06 12.98 -7.78 21.5 -12.73 36.92
-21.42 125.14 -78.31 160.01 -103.19 7.97 -5.69 18.99 -13.51 24.49 -17.39
40.35 -28.43 81.61 -59.43 124.5 -93.55 24.94 -19.84 55.86 -45.46 87.58
-72.57 11.34 -9.7 38.89 -34.21 50.36 -44.82 5.81 -5.37 20.22 -18.65 32.03
-29.5 11.81 -10.85 33.36 -31.43 47.89 -45.73 33.27 -32.73 80.62 -81.51
106.63 -109.83 27.37 -29.8 53.3 -58.58 61.32 -68.06 3.67 -4.34 9.86 -11.54
13.75 -16 10.51 -12.06 39.85 -46.96 48.43 -57.62 4.12 -5.13 10.99 -13.53
15.26 -18.68 7.22 -8.7 17.49 -21.57 34.02 -42.62 3.73 -4.75 13.65 -17.76
22.05 -28.92 8.4 -11.16 19.56 -25.91 24.81 -32.78 5.25 -6.88 17.79 -23.97
27.89 -38 10.09 -14.03 23.39 -32.47 29.56 -41 12.12 -16.76 24.37 -34.49
52.73 -76.34 18 -26.56 28.84 -43.25 50.76 -78.16 6.22 -9.9 17.59 -27.68
25.27 -39.5 16.88 -25.98 31.46 -49.68 35.51 -57.7 1.64 -3.25 3.71 -6.52
4.59 -7.25 1.35 -1.12 1.93 -1.03 3.69 .56 1.15 1.04 3.45 4.59 5.12 7.89
1.66 3.3 8.06 14.78 14.21 25.5 6.15 10.72 15.6 28.05 21.01 38.5 9.39 18.17
31.05 59.02 36.31 68.5 3.39 6.11 31.63 61.6 47.54 93.43 7.13 14.26 14.9
30.4 17.27 35.86 2.37 5.46 5.8 12.42 7.62 15.46 5.1 8.53 16.89 20.47 25.93
26.27 4.43 2.84 11.16 6.45 14.95 8.01 3.79 1.56 11.37 3.77 16.85 4.91 5.48
1.14 13.08 2.06 16.89 2.06 4.09 0 10.97 -1.02 16.81 -2.5 5.43 -1.38 13.57
-4.27 18.08 -6.43 4.51 -2.16 10.85 -5.73 14.08 -7.92 6.16 -4.18 14.29
-12.49 19.16 -19.56 4.21 -6.12 10.81 -22.17 13.71 -33.35 2.44 -9.41 2.5
-10.4 1.82 -29.73 -.39 -11 -.82 -22.47 -.97 -25.5 -.41 -8.43 -1.43 -39.84
-2.52 -78 -.54 -18.97 -1.44 -47.32 -1.99 -63 -.55 -15.68 -1.45 -49.35 -1.99
-74.83 -.55 -25.48 -1.43 -57.88 -1.97 -72 -.54 -14.12 -1.44 -44.35 -2.01
-67.17 -.57 -22.82 -1.48 -51.62 -2.03 -64 -.55 -12.38 -1.44 -42.07 -1.98
-66 -.55 -23.93 -1.44 -54.3 -1.98 -67.5 -.54 -13.2 -1.46 -42.9 -2.05 -66
-.59 -23.1 -1.69 -57.97 -2.45 -77.5 -.99 -25.62 -1.82 -37.17 -2.98 -41.5
-1.88 -7.05 -8.2 -20.68 -12.47 -26.9 -5.52 -8.03 -13.21 -15.57 -21.43
-21.03 -8.04 -5.34 -19.4 -10.49 -29.14 -13.22 -2.75 -.77 -9.5 -1.59 -15
-1.81 -6.78 -.28 -13.38 .16 -20.5 1.38z" data-index="2"></path>
<path fill="#0d8e95" stroke="none" fill-rule="evenodd" d="M1720 1332.58 c-10.53 3.06 -26.39 10.62 -36.7 17.5 -5.56 3.71 -16.43 13.85
-37.8 35.26 -16.5 16.53 -34.05 34.36 -39 39.61 -4.95 5.25 8.55 -7.79 30
-28.98 21.45 -21.19 41.03 -40.15 43.5 -42.12 10.36 -8.26 30.8 -18.14 43.25
-20.89 3.16 -.7 5.75 -1.65 5.75 -2.11 0 -.46 -.11 -.82 -.25 -.79 -.14 .03
-4.08 1.16 -8.75 2.52z" data-index="3"></path>
<path fill="#108a9a" stroke="none" fill-rule="evenodd" d="M1498.3 1533.27 c-30.56 30.73 -35.06 36.41 -44.28 56.01 -6.11 12.98 -12.09
32.71 -9.91 32.71 .49 0 .89 -.85 .89 -1.89 0 -4.28 5.44 -20.32 10.39 -30.61
9.75 -20.29 11.25 -22.14 49.01 -60.21 12.66 -12.77 22.79 -23.44 22.5 -23.73
-.28 -.28 -13.15 12.19 -28.59 27.71z" data-index="4"></path>
<path fill="#078090" stroke="none" fill-rule="evenodd" d="M1442.54 1661.75 c3.03 21.85 13.39 45.72 27.01 62.25 6.55 7.96 79.46 80.89
79.46 79.49 0 -.55 -11.96 -12.92 -26.59 -27.49 -40.77 -40.62 -56.58 -57.66
-61.81 -66.59 -8.05 -13.75 -16.6 -38.74 -16.6 -48.51 0 -2.14 -.48 -3.89
-1.06 -3.89 -.75 0 -.87 1.4 -.4 4.75z" data-index="5"></path>
<path fill="#258192" stroke="none" fill-rule="evenodd" d="M4360.5 3323.72 c-15.03 28.2 -18.89 35.09 -42.51 75.78 -31.8 54.78 -74.44
120.99 -115.86 179.88 -10.01 14.23 -18.03 26.05 -17.82 26.25 .91 .91 46.48
-65.25 72.42 -105.13 43.13 -66.31 90.02 -146.21 115.15 -196.25 8.47 -16.85
2.94 -7.4 -11.38 19.47z" data-index="6"></path>
<path fill="#2b808f" stroke="none" fill-rule="evenodd" d="M4688 3480.27 c0 .77 7.85 15.2 17 31.23 5.67 9.94 9.14 16.34 18.74 34.5
8.73 16.51 30.31 57.16 35.05 66 5.14 9.58 30.06 58.28 48.46 94.68 6.72 13.3
12.39 24.01 12.59 23.81 .2 -.2 -11.76 -24.36 -26.6 -53.68 -40.55 -80.16
-105.25 -200.97 -105.25 -196.54z" data-index="7"></path>
</g>
</svg>