<?xml version="1.0" encoding="UTF-8"?>
<!-- Generator: visioncortex VTracer -->
<svg id="svg" version="1.1" xmlns="http://www.w3.org/2000/svg" style="display: block;" viewBox="0 0 530 530"><rect x="0" y="0" width="530" height="530" rx="96" ry="96" style="fill: #FDFDFD;"/><g transform="translate(40,40) scale(0.85)">

<path d="M0 0 C1.13641744 -0.00657338 1.13641744 -0.00657338 2.29579282 -0.01327956 C4.82425271 -0.02659127 7.35267782 -0.03282909 9.88116455 -0.03897095 C11.69831497 -0.04687778 13.51546384 -0.05514708 15.33261108 -0.06375122 C21.29051224 -0.08989856 27.24842018 -0.10526903 33.20635986 -0.11953735 C35.26097874 -0.12489955 37.31559757 -0.13027706 39.37021637 -0.13566971 C47.91791043 -0.15728545 56.46560266 -0.17602164 65.01331711 -0.1872921 C77.24651694 -0.20353098 89.47939921 -0.23672246 101.71247935 -0.29369295 C110.32415033 -0.33242649 118.93573648 -0.35192869 127.54749227 -0.35721266 C132.68651754 -0.36086066 137.82520352 -0.37282409 142.96413422 -0.4053154 C147.80041262 -0.43545702 152.63614747 -0.44168613 157.47249985 -0.42993164 C159.24213821 -0.42971143 161.01180227 -0.43797247 162.781353 -0.45558548 C173.92660938 -0.56043437 182.29241611 0.23671388 191.20245361 7.5484314 C191.95139893 8.34636108 192.70034424 9.14429077 193.47198486 9.96640015 C194.30085205 10.83909546 195.12971924 11.71179077 195.98370361 12.6109314 C198.51077525 15.40401058 200.9933426 18.22841297 203.44073486 21.09140015 C206.43554137 24.44152268 209.67082083 27.54766321 212.86651611 30.7046814 C215.59098404 33.46436054 218.11995863 36.34570672 220.63995361 39.2906189 C222.28847239 41.15841808 224.00752068 42.90845639 225.78448486 44.65390015 C228.07774522 46.91187958 230.24876514 49.21386518 232.34698486 51.65390015 C236.39817373 56.35145848 240.6478134 60.8566085 244.88824463 65.38241577 C248.54377046 69.28550394 252.17773498 73.20568282 255.78448486 77.15390015 C259.88318075 81.63722438 264.01232675 86.09038458 268.15948486 90.52890015 C268.74391357 91.15530396 269.32834229 91.78170776 269.93048096 92.42709351 C272.91979405 95.62969413 275.91640879 98.82497134 278.92510986 102.0093689 C280.0865927 103.24502295 281.24805194 104.48069918 282.40948486 105.71640015 C283.20781738 106.55533813 283.20781738 106.55533813 284.02227783 107.41122437 C290.6185358 114.4482217 294.50915745 120.56075653 294.59088135 130.38754272 C294.59920486 131.09718674 294.60752838 131.80683075 294.61610413 132.53797913 C294.64012143 134.87485303 294.64896629 137.21144731 294.65557861 139.5484314 C294.6645518 141.18121928 294.67367377 142.81400635 294.68293762 144.4467926 C294.69940809 147.86716709 294.70712408 151.28744393 294.71002197 154.70785522 C294.71540142 159.07586757 294.75307083 163.44295324 294.79876614 167.81070423 C294.82861187 171.18320509 294.83574716 174.5554849 294.83674812 177.92810631 C294.84093615 179.53757658 294.85331327 181.14704838 294.87426567 182.75638771 C295.06970251 199.06678425 295.06970251 199.06678425 289.28448486 205.15390015 C285.51643558 208.59897377 281.63885967 208.66643176 276.72198486 208.50546265 C273.07652468 207.97967512 270.99343137 206.59855919 268.28448486 204.15390015 C265.75035965 200.58092635 264.91204826 198.17771517 264.94390869 193.81283569 C264.94413528 192.77213425 264.94436188 191.7314328 264.94459534 190.65919495 C264.96782112 188.9917498 264.96782112 188.9917498 264.99151611 187.2906189 C264.99576096 186.1434993 265.0000058 184.9963797 265.00437927 183.8144989 C265.02115003 180.15655893 265.05880051 176.49917315 265.09698486 172.84140015 C265.11203372 170.35898624 265.12572177 167.87656368 265.13800049 165.39413452 C265.17104837 159.31386783 265.22123246 153.23392359 265.28448486 147.15390015 C264.30444489 147.1650032 263.32440491 147.17610626 262.31466675 147.18754578 C253.04671474 147.28921622 243.77887694 147.36400612 234.51049232 147.41296101 C229.74627943 147.43897614 224.98251928 147.4742251 220.21856689 147.53109741 C215.61493906 147.58570739 211.01174476 147.61538139 206.40781784 147.62828636 C204.65762896 147.63747452 202.90746191 147.65541637 201.15745926 147.68255043 C191.47299018 147.82664099 183.54385524 147.92472678 175.28448486 142.15390015 C174.21198486 141.41140015 173.13948486 140.66890015 172.03448486 139.90390015 C164.72317904 132.59259432 159.96731321 123.89598273 159.91122437 113.44702148 C159.92201019 112.63421722 159.93279602 111.82141296 159.94390869 110.98397827 C159.94347061 110.10498871 159.94303253 109.22599915 159.94258118 108.32037354 C159.94465578 105.44173245 159.96792364 102.56368833 159.99151611 99.68515015 C159.9971168 97.67876504 160.00138466 95.6723758 160.00437927 93.66598511 C160.01579082 88.4052075 160.04522612 83.14468144 160.07849121 77.88400269 C160.10927183 72.50785728 160.12290165 67.13167092 160.13800049 61.75546265 C160.17009946 51.22149843 160.22125097 40.68772027 160.28448486 30.15390015 C138.29182336 30.14433545 116.29943586 30.16900882 94.30686378 30.23417854 C84.09476008 30.26364584 73.8828641 30.28200878 63.67071533 30.27401733 C54.76733407 30.26707846 45.86427445 30.28119171 36.96097219 30.32033622 C32.24885322 30.34032507 27.53723898 30.34994012 22.82509232 30.33432388 C18.38430214 30.3199401 13.94447384 30.33383247 9.50380707 30.36885262 C7.87934199 30.37678181 6.25478935 30.37462665 4.63035965 30.36129189 C-4.76298735 30.29074168 -12.18507076 30.82863955 -19.71551514 37.15390015 C-21.9827996 39.47711407 -21.9827996 39.47711407 -23.27801514 41.90390015 C-23.7330542 42.6618689 -24.18809326 43.41983765 -24.65692139 44.20077515 C-26.58603681 47.76002869 -26.84294212 49.85067597 -26.84973621 53.94467068 C-26.85419406 55.18544131 -26.8586519 56.42621194 -26.86324483 57.70458168 C-26.86315553 59.09421759 -26.86296565 60.48385349 -26.86268616 61.87348938 C-26.86598382 63.3399306 -26.86970918 64.8063709 -26.87382764 66.27281004 C-26.88386742 70.31741781 -26.88756762 74.36201074 -26.89021695 78.4066292 C-26.89411432 82.76336146 -26.90369325 87.12008191 -26.91242981 91.47680664 C-26.93221353 102.007819 -26.94226427 112.53883234 -26.9511576 123.06985864 C-26.95553865 128.02800884 -26.96090605 132.98615797 -26.96614647 137.94430733 C-26.98316304 154.4259656 -26.99765629 170.90762319 -27.00489521 187.3892889 C-27.00680515 191.66865477 -27.00872547 195.94802063 -27.01068115 200.22738647 C-27.01116489 201.29101953 -27.01164863 202.35465259 -27.01214703 203.45051695 C-27.02044375 220.67305162 -27.04577271 237.89551675 -27.07826183 255.11802106 C-27.11134053 272.7971829 -27.12934483 290.47630943 -27.13253945 308.15550238 C-27.13470413 318.0827306 -27.14344637 328.00985752 -27.16900063 337.93705559 C-27.19071894 346.3937464 -27.19875258 354.85031132 -27.18903384 363.30702686 C-27.184492 367.62029448 -27.18636841 371.93330241 -27.20579529 376.24653435 C-27.22344881 380.20029825 -27.22241172 384.15361343 -27.206898 388.10738225 C-27.20452518 389.53281704 -27.20882852 390.95828309 -27.22072665 392.3836702 C-27.29231218 401.53097524 -27.07609924 411.08715002 -20.8189829 418.35756248 C-13.65542112 425.30031924 -5.86398081 426.60357866 3.72808838 426.57382202 C4.74616074 426.58229156 5.76423309 426.59076111 6.81315613 426.5994873 C10.18002927 426.62286288 13.54644281 426.6238763 16.91339111 426.62265015 C19.30043206 426.62977166 21.68747134 426.63747347 24.07450867 426.64572144 C29.10231234 426.65918233 34.12995923 426.66073673 39.15777588 426.65487671 C44.21433798 426.65023377 49.27026147 426.66355514 54.32672119 426.69589233 C80.14005501 426.85904358 105.74886497 426.64182835 131.43682861 423.87265015 C132.8724927 423.72028145 132.8724927 423.72028145 134.33716011 423.56483459 C144.69279832 422.43411216 154.69108139 420.82728779 164.74836731 418.0920105 C168.53642788 417.08706121 172.31660512 416.29490371 176.15948486 415.52890015 C231.05702923 403.2538876 278.6988038 366.75131273 317.65948486 327.90390015 C318.18158539 327.38447845 318.70368591 326.86505676 319.24160767 326.32989502 C325.14183125 320.45262274 330.90294598 314.51683114 336.28448486 308.15390015 C337.16139022 307.14417825 338.03895254 306.13502637 338.91729736 305.1265564 C346.3933951 296.39663035 353.3719042 287.33354322 360.28448486 278.15390015 C361.36637668 276.72410713 362.4484063 275.29441838 363.53057861 273.86483765 C368.92359994 266.72376222 374.23771258 259.54635532 379.28448486 252.15390015 C368.72088472 254.59497748 358.21686379 257.13606025 347.78448486 260.09140015 C335.59984164 263.50750102 323.23578842 265.94275566 310.83477783 268.42929077 C304.40771257 269.74104498 298.00459898 271.16293358 291.60308838 272.59359741 C271.34195551 277.07197718 271.34195551 277.07197718 263.84698486 273.52890015 C259.91784338 269.88725682 258.16230783 266.48387548 257.84698486 261.15390015 C258.03420817 256.88846474 259.47442003 254.40765943 262.28448486 251.15390015 C267.09033973 247.35376428 271.22745017 246.22804463 277.10870361 245.2593689 C278.38433167 245.03035133 278.38433167 245.03035133 279.68572998 244.79670715 C281.50351691 244.47056447 283.32231621 244.15002263 285.14199829 243.83462524 C289.92562905 243.00090866 294.69881405 242.11169192 299.47198486 241.2203064 C300.88691475 240.95652191 300.88691475 240.95652191 302.33042908 240.68740845 C324.87038475 236.43838318 346.56437625 229.3908237 368.28448486 222.15390015 C370.13073369 221.54290467 371.97707556 220.9321902 373.82354736 220.3218689 C376.75037993 219.3521816 379.67493201 218.37617432 382.59698486 217.3921814 C384.9897391 216.58868236 387.3854376 215.79387877 389.78448486 215.0093689 C396.08036613 212.94931951 402.1037757 210.59849035 408.13995361 207.85702515 C415.94317861 204.53809074 422.79650907 202.89598684 431.28448486 204.15390015 C436.18947192 206.39126266 439.01436386 209.26440876 441.28448486 214.15390015 C442.53335149 222.72758002 440.55700696 231.42764746 439.13604736 239.87265015 C438.22523859 245.36628684 437.52004156 250.87673273 436.84698486 256.40390015 C436.66450195 257.89155884 436.66450195 257.89155884 436.47833252 259.40927124 C436.21929986 261.52299101 435.96068834 263.63676243 435.70245361 265.75057983 C433.63284496 282.60241662 431.48712199 299.42794815 428.784729 316.1914978 C427.81182879 322.3403791 426.98670999 328.4889652 426.28448486 334.6734314 C426.20053467 335.39912827 426.11658447 336.12482513 426.03009033 336.87251282 C425.61830862 340.43714699 425.22249706 344.00217355 424.85479736 347.57162476 C424.70784424 348.86205688 424.56089111 350.15248901 424.40948486 351.48202515 C424.28831299 352.62574585 424.16714111 353.76946655 424.04229736 354.94784546 C422.91539875 359.71538172 420.38357778 362.92550218 417.15948486 366.52890015 C412.87823046 368.94873959 409.08882645 368.88841727 404.28448486 368.15390015 C400.32417515 366.84117179 397.82392919 365.03719987 395.61187744 361.41513062 C391.84688857 352.16504392 394.5493671 340.61340423 396.09698486 331.02890015 C397.78331119 319.98548269 399.14390926 308.94798883 400.24468994 297.83114624 C401.01018678 290.22618809 402.05335302 282.69747902 403.28448486 275.15390015 C402.62448486 275.15390015 401.96448486 275.15390015 401.28448486 275.15390015 C401.06018799 275.68757202 400.83589111 276.2212439 400.60479736 276.77108765 C398.84546172 279.94622002 396.53101141 282.55473024 394.15948486 285.27890015 C393.1584356 286.44466663 392.15844311 287.61134135 391.15948486 288.77890015 C390.66835205 289.35253296 390.17721924 289.92616577 389.67120361 290.5171814 C387.1207259 293.52746355 384.68002525 296.62375537 382.22589111 299.7124939 C366.39007789 319.62674594 349.30161192 338.20660304 331.34698486 356.21640015 C330.85643616 356.70962769 330.36588745 357.20285522 329.86047363 357.71102905 C324.18263866 363.41242153 318.42269514 368.94708659 312.28448486 374.15390015 C311.26307298 375.04255852 310.24220354 375.93184092 309.22198486 376.8218689 C283.63582115 398.76744815 255.1438851 416.5700844 224.28448486 430.15390015 C223.13979736 430.66179077 221.99510986 431.1696814 220.81573486 431.69296265 C208.64240807 436.82001695 195.93494201 440.41184885 183.28448486 444.15390015 C181.97665039 444.54738647 181.97665039 444.54738647 180.64239502 444.94882202 C150.16488407 454.09765386 118.10138907 455.64148751 86.45206785 455.62273979 C83.68061984 455.62261675 80.90922033 455.63130743 78.13778651 455.63951731 C71.60006151 455.65843849 65.06246403 455.66174459 58.52471924 455.65487671 C51.83717777 455.64818151 45.1501801 455.67138986 38.46274889 455.70819044 C32.64364247 455.73901966 26.82471056 455.75023557 21.00552428 455.74635363 C17.56247683 455.74430853 14.11985904 455.74941907 10.67689133 455.77424622 C-10.9036653 455.90009237 -26.20088591 454.1859006 -42.46551514 438.84140015 C-54.90087999 425.77001134 -57.3433035 410.05479658 -57.22344971 392.5743866 C-57.22807296 391.07665886 -57.23443533 389.57893568 -57.24235868 388.08122176 C-57.25887939 384.01497281 -57.25088557 379.9491049 -57.23841381 375.88285553 C-57.22929422 371.47859587 -57.24336684 367.07439783 -57.2543335 362.67015076 C-57.27204884 354.06257302 -57.26831043 345.45513539 -57.25668293 336.84755234 C-57.24762301 329.84908279 -57.24643564 322.85065231 -57.2507782 315.85217857 C-57.25139113 314.85341904 -57.25200406 313.85465951 -57.25263557 312.82563454 C-57.25391455 310.79625958 -57.25521141 308.76688463 -57.25652593 306.73750969 C-57.2679108 287.74332048 -57.25485003 268.74920871 -57.23332447 249.7550322 C-57.21544715 233.476247 -57.2185669 217.19757588 -57.23699951 200.91879272 C-57.25842904 181.9845944 -57.26682102 163.05046375 -57.25455046 144.11625499 C-57.25327634 142.09556148 -57.25201886 140.07486795 -57.2507782 138.05417442 C-57.2501611 137.06011557 -57.24954399 136.06605671 -57.24890819 135.04187486 C-57.24546216 128.05465689 -57.25126734 121.06748206 -57.26069641 114.08027077 C-57.27194057 105.5613733 -57.2688253 97.04262317 -57.24757344 88.52374247 C-57.23709676 84.18179202 -57.23288324 79.8400868 -57.24617004 75.49813843 C-57.25816984 71.5164324 -57.25140794 67.53519682 -57.23025984 63.55353292 C-57.22582576 62.12041584 -57.22798732 60.68725825 -57.23776299 59.25416765 C-57.34798821 41.73927973 -52.11222086 28.20699624 -40.11785889 15.47421265 C-29.07140891 4.80495852 -15.23627687 0.01084325 0 0 Z " transform="translate(73.71551513671875,36.846099853515625)" style="fill: #5629E3;"/>

<path d="M0 0 C4.42211875 4.30873109 6.67383525 7.29140766 6.875 13.5625 C6.63662999 20.50076981 5.43863148 27.26166751 4.2890625 34.09375 C3.37825372 39.58738669 2.6730567 45.09783259 2 50.625 C1.81751709 52.11265869 1.81751709 52.11265869 1.63134766 53.63037109 C1.372315 55.74409087 1.11370347 57.85786228 0.85546875 59.97167969 C-1.2141399 76.82351647 -3.35986287 93.649048 -6.06225586 110.41259766 C-7.03515607 116.56147895 -7.86027488 122.71006505 -8.5625 128.89453125 C-8.6464502 129.62022812 -8.73040039 130.34592499 -8.81689453 131.09361267 C-9.22867624 134.65824684 -9.6244878 138.2232734 -9.9921875 141.79272461 C-10.13914062 143.08315674 -10.28609375 144.37358887 -10.4375 145.703125 C-10.55867188 146.8468457 -10.67984375 147.99056641 -10.8046875 149.16894531 C-11.93158611 153.93648157 -14.46340708 157.14660204 -17.6875 160.75 C-21.9687544 163.16983944 -25.75815841 163.10951712 -30.5625 162.375 C-34.52280972 161.06227164 -37.02305568 159.25829972 -39.23510742 155.63623047 C-43.00009629 146.38614378 -40.29761777 134.83450408 -38.75 125.25 C-37.06367367 114.20658254 -35.7030756 103.16908869 -34.60229492 92.05224609 C-33.83679809 84.44728794 -32.79363184 76.91857887 -31.5625 69.375 C-32.2225 69.375 -32.8825 69.375 -33.5625 69.375 C-33.89894531 70.17550781 -33.89894531 70.17550781 -34.2421875 70.9921875 C-36.00152315 74.16731988 -38.31597345 76.7758301 -40.6875 79.5 C-41.68854926 80.66576648 -42.68854175 81.83244121 -43.6875 83 C-44.17863281 83.57363281 -44.66976563 84.14726562 -45.17578125 84.73828125 C-47.72625897 87.7485634 -50.16695961 90.84485523 -52.62109375 93.93359375 C-68.45690698 113.84784579 -85.54537295 132.4277029 -103.5 150.4375 C-103.99054871 150.93072754 -104.48109741 151.42395508 -104.98651123 151.93212891 C-110.6643462 157.63352138 -116.42428973 163.16818644 -122.5625 168.375 C-123.58391189 169.26365837 -124.60478132 170.15294078 -125.625 171.04296875 C-151.21116371 192.988548 -179.70309976 210.79118425 -210.5625 224.375 C-211.7071875 224.88289062 -212.851875 225.39078125 -214.03125 225.9140625 C-226.20457679 231.0411168 -238.91204285 234.6329487 -251.5625 238.375 C-252.87033447 238.76848633 -252.87033447 238.76848633 -254.20458984 239.16992188 C-265.22212624 242.47719943 -276.14692325 244.9277034 -287.5625 246.375 C-288.63081055 246.51180176 -289.69912109 246.64860352 -290.79980469 246.78955078 C-314.3895867 249.67882676 -337.82852884 249.71252366 -361.5625 249.375 C-360.38107422 248.44880859 -360.38107422 248.44880859 -359.17578125 247.50390625 C-355.56475697 244.56218991 -353.85263871 242.48886774 -353.20703125 237.78515625 C-352.88968793 231.53945353 -352.88968793 231.53945353 -356.0625 226.3125 C-357.3 225.3534375 -357.3 225.3534375 -358.5625 224.375 C-358.5625 223.715 -358.5625 223.055 -358.5625 222.375 C-359.2225 222.045 -359.8825 221.715 -360.5625 221.375 C-359.86954834 221.37089111 -359.17659668 221.36678223 -358.46264648 221.36254883 C-340.57909141 221.18237277 -322.90977254 219.91908954 -305.125 218.0625 C-304.12411346 217.96176178 -303.12322693 217.86102356 -302.0920105 217.75723267 C-291.17586643 216.64733429 -280.62808247 215.23425918 -270.03833008 212.31420898 C-266.27069148 211.29615001 -262.51369841 210.51752413 -258.6875 209.75 C-203.78995563 197.47498745 -156.14818106 160.97241258 -117.1875 122.125 C-116.66539948 121.60557831 -116.14329895 121.08615662 -115.6053772 120.55099487 C-109.70515362 114.67372259 -103.94403888 108.737931 -98.5625 102.375 C-97.68559464 101.36527811 -96.80803232 100.35612623 -95.9296875 99.34765625 C-88.45358976 90.61773021 -81.47508066 81.55464307 -74.5625 72.375 C-73.48060818 70.94520698 -72.39857856 69.51551823 -71.31640625 68.0859375 C-65.92338492 60.94486208 -60.60927228 53.76745517 -55.5625 46.375 C-66.12610014 48.81607733 -76.63012107 51.3571601 -87.0625 54.3125 C-99.24714322 57.72860088 -111.61119644 60.16385551 -124.01220703 62.65039062 C-130.43927229 63.96214483 -136.84238588 65.38403343 -143.24389648 66.81469727 C-163.50502936 71.29307703 -163.50502936 71.29307703 -171 67.75 C-174.92914148 64.10835668 -176.68467703 60.70497533 -177 55.375 C-176.81277669 51.10956459 -175.37256484 48.62875928 -172.5625 45.375 C-167.75664514 41.57486413 -163.61953469 40.44914448 -157.73828125 39.48046875 C-156.88786255 39.32779037 -156.03744385 39.175112 -155.16125488 39.01780701 C-153.34346795 38.69166432 -151.52466865 38.37112249 -149.70498657 38.0557251 C-144.92135581 37.22200851 -140.14817082 36.33279178 -135.375 35.44140625 C-133.96007011 35.17762177 -133.96007011 35.17762177 -132.51655579 34.9085083 C-109.97660011 30.65948303 -88.28260862 23.61192355 -66.5625 16.375 C-64.71625117 15.76400452 -62.8699093 15.15329006 -61.0234375 14.54296875 C-58.09660493 13.57328146 -55.17205285 12.59727418 -52.25 11.61328125 C-49.85724577 10.80978221 -47.46154726 10.01497863 -45.0625 9.23046875 C-38.76661874 7.17041937 -32.74320916 4.81959021 -26.70703125 2.078125 C-17.93234358 -1.65400022 -9.06217359 -4.13362304 0 0 Z " transform="translate(508.5625,242.625)" style="fill: #06A597;"/>

<path d="M0 0 C0.89802841 -0.0065712 1.79605682 -0.0131424 2.72129822 -0.01991272 C5.6900135 -0.03960716 8.65867834 -0.05129821 11.62744141 -0.0612793 C12.64231251 -0.06535482 13.65718361 -0.06943035 14.70280838 -0.07362938 C20.0718897 -0.09447117 25.44094559 -0.10878249 30.81005859 -0.11816406 C36.35401346 -0.12923958 41.8975682 -0.16365821 47.44138145 -0.20333576 C51.70678454 -0.2294769 55.97209176 -0.23785356 60.2375679 -0.24144554 C62.2812941 -0.24631599 64.32501589 -0.25794298 66.36866379 -0.27648354 C69.22917241 -0.30082708 72.08863829 -0.29991893 74.94921875 -0.29296875 C76.21186302 -0.31218384 76.21186302 -0.31218384 77.50001526 -0.33178711 C83.77172759 -0.27630873 87.13702432 1.61926093 91.91650391 5.73950195 C94.42969032 8.78178025 94.44426982 12.30812141 94.38134766 16.1184082 C93.75916083 20.7366118 90.98125415 23.44673248 87.53623962 26.31454468 C83.10792635 28.71751025 79.76798175 28.75500656 74.81323242 28.72631836 C73.89701111 28.73654022 72.98078979 28.74676208 72.0368042 28.7572937 C69.01857118 28.78501534 66.00125508 28.78317815 62.98291016 28.77856445 C60.87832807 28.78634194 58.77374911 28.79501202 56.66917419 28.80453491 C52.26184911 28.81944386 47.8548445 28.81888808 43.44750977 28.80834961 C37.80697521 28.79675822 32.16775372 28.83063144 26.52743626 28.87703896 C22.18214789 28.90654013 17.83717489 28.90825369 13.49180412 28.9020195 C11.41262141 28.9030445 9.33342072 28.91349349 7.2543354 28.93364334 C4.34341857 28.95839487 1.43504774 28.94478325 -1.47583008 28.92163086 C-2.75642052 28.94456207 -2.75642052 28.94456207 -4.06288147 28.96795654 C-9.63760166 28.87023566 -12.51282003 27.55131276 -16.55554295 23.7013607 C-19.38204015 20.48707772 -19.83352099 17.8767231 -20.20849609 13.67700195 C-19.71260934 8.12307031 -17.08838134 4.73417732 -12.89599609 1.17700195 C-8.67402164 -0.17033134 -4.38833436 0.01395088 0 0 Z " transform="translate(124.89599609375,256.822998046875)" style="fill: #5528E3;"/>

<path d="M0 0 C1.21098862 -0.01292336 1.21098862 -0.01292336 2.44644165 -0.02610779 C5.10280861 -0.04872309 7.75811655 -0.04203637 10.41455078 -0.03295898 C12.27011425 -0.03819726 14.12567506 -0.04447448 15.98123169 -0.05174255 C19.86652166 -0.06213911 23.75144524 -0.05759709 27.63671875 -0.04296875 C32.6022304 -0.02579865 37.56658295 -0.04925795 42.53196526 -0.08445835 C46.36345 -0.10648044 50.19465958 -0.10497898 54.0261879 -0.09669304 C55.85612381 -0.09587583 57.68608039 -0.10269496 59.51595688 -0.11746407 C62.08166208 -0.13499579 64.64531276 -0.12029702 67.2109375 -0.09765625 C67.95821106 -0.10934845 68.70548462 -0.12104065 69.47540283 -0.13308716 C75.22718299 -0.03044827 79.30602184 1.86114843 83.73486328 5.53344727 C86.85749158 10.21738971 86.44286602 15.05350605 85.73486328 20.53344727 C83.93074479 24.57189711 81.42517077 27.07324228 77.73486328 29.53344727 C74.96403816 29.74864881 72.29170578 29.84788335 69.51904297 29.85571289 C68.26241096 29.8706076 68.26241096 29.8706076 66.98039246 29.88580322 C64.20580773 29.91503825 61.43145181 29.92864985 58.65673828 29.93969727 C56.72723383 29.95120244 54.79772943 29.96271789 52.8682251 29.97424316 C48.81969131 29.99526185 44.77123693 30.00694745 40.72265625 30.01391602 C35.5428162 30.02487499 30.36403049 30.07290499 25.18452072 30.12985992 C21.19699068 30.16717193 17.20971285 30.177527 13.22202301 30.18058777 C11.31306454 30.18663049 9.40410997 30.20265316 7.49532318 30.22895813 C4.81882957 30.26320444 2.14488758 30.25929304 -0.53173828 30.24633789 C-1.70718956 30.27398224 -1.70718956 30.27398224 -2.90638733 30.30218506 C-8.20465342 30.22214678 -10.95835419 28.78899849 -14.84560776 25.2115097 C-18.18104082 21.26860674 -18.70980536 17.81020987 -18.57763672 12.77954102 C-17.91190598 7.99460131 -15.25590578 5.33703046 -11.63327026 2.39881897 C-7.6419939 0.18833239 -4.4419781 -0.03858241 0 0 Z " transform="translate(123.26513671875,338.466552734375)" style="fill: #5629E3;"/>


<path d="M0 0 C3.07865139 1.88713754 5.45466973 4.45870353 8 7 C9.20485909 8.11433239 10.41208975 9.22610354 11.62109375 10.3359375 C12.9155617 11.5557026 14.20851953 12.7770722 15.5 14 C16.13623291 14.58088379 16.77246582 15.16176758 17.42797852 15.76025391 C20.52568767 18.76969841 21.87299935 20.28263877 22.64453125 24.640625 C21.89954961 28.52355963 20.93972007 29.95439993 18.1875 32.75 C17.37539062 33.58917969 16.56328125 34.42835938 15.7265625 35.29296875 C14.82679688 36.18628906 13.92703125 37.07960937 13 38 C12.0064555 39.01560132 11.01429633 40.03255952 10.0234375 41.05078125 C1.47181879 49.77161433 1.47181879 49.77161433 -3.625 50.5625 C-7.68701079 50.53301172 -9.3690338 49.15770686 -12.1875 46.3125 C-13.47132049 44.88658676 -14.74348617 43.45003331 -16 42 C-16.825 41.195625 -17.65 40.39125 -18.5 39.5625 C-19.7375 38.2940625 -19.7375 38.2940625 -21 37 C-21.68707031 36.3090625 -22.37414062 35.618125 -23.08203125 34.90625 C-23.81808594 34.1328125 -24.55414063 33.359375 -25.3125 32.5625 C-26.00988281 31.84191406 -26.70726563 31.12132812 -27.42578125 30.37890625 C-29.4429564 27.33061924 -29.48716929 25.59167945 -29 22 C-27.92578125 20.12109375 -27.92578125 20.12109375 -26.3125 18.4375 C-25.37277344 17.44363281 -25.37277344 17.44363281 -24.4140625 16.4296875 C-23.61742188 15.62789062 -22.82078125 14.82609375 -22 14 C-20.9035393 12.87770824 -19.80719376 11.75530396 -18.7109375 10.6328125 C-7.31497013 -0.94386711 -7.31497013 -0.94386711 0 0 Z " transform="translate(151,156)" style="fill: #09A698;"/>

<path d="M0 0 C-3.13321355 7.61665172 -11.68389136 13.64678354 -19 17 C-19.66 16.67 -20.32 16.34 -21 16 C-20.53102295 15.62190186 -20.0620459 15.24380371 -19.57885742 14.85424805 C-17.44694945 13.1337933 -15.31720791 11.41067725 -13.1875 9.6875 C-12.08051758 8.79514648 -12.08051758 8.79514648 -10.95117188 7.88476562 C-10.23896484 7.30791016 -9.52675781 6.73105469 -8.79296875 6.13671875 C-8.1383667 5.60780029 -7.48376465 5.07888184 -6.80932617 4.53393555 C-4.97489193 3.0343585 -4.97489193 3.0343585 -3.38793945 1.30395508 C-2 0 -2 0 0 0 Z " transform="translate(371,386)" style="fill: #14A99B;"/>

<path d="M0 0 C0.66 0.33 1.32 0.66 2 1 C0.76075855 5.95696581 -0.78577758 8.11658466 -5 11 C-5 6.86356447 -4.84767359 6.30197567 -2.5 3.25 C-2.0359375 2.63640625 -1.571875 2.0228125 -1.09375 1.390625 C-0.55234375 0.70226562 -0.55234375 0.70226562 0 0 Z " transform="translate(448,296)" style="fill: #1AA9A0;"/>

<path d="M0 0 C0.66 0.33 1.32 0.66 2 1 C-0.97088618 4.99926986 -4.12948725 7.92118304 -8 11 C-8.66 10.67 -9.32 10.34 -10 10 C-6.7 6.7 -3.4 3.4 0 0 Z " transform="translate(142,157)" style="fill: #26B4A6;"/>

<path d="M0 0 C0.99 0 1.98 0 3 0 C3 2.31 3 4.62 3 7 C2.01 6.67 1.02 6.34 0 6 C0 4.02 0 2.04 0 0 Z " transform="translate(170,177)" style="fill: #14AB9E;"/>



<path d="M0 0 C2.97 0 5.94 0 9 0 C7.68 0.33 6.36 0.66 5 1 C5.33 2.32 5.66 3.64 6 5 C4.68 4.34 3.36 3.68 2 3 C2 2.34 2 1.68 2 1 C1.34 0.67 0.68 0.34 0 0 Z " transform="translate(148,464)" style="fill: #169BA3;"/>

</g></svg>