<svg xmlns="http://www.w3.org/2000/svg" width="2172" height="724" viewBox="0 0 2172 724">
<defs>
<radialGradient id="grad4" gradientUnits="userSpaceOnUse" cx="1853.16" cy="260.85" r="23.72">
<stop offset="0.0000" stop-color="#5829e5"></stop>
<stop offset="0.8958" stop-color="#5b2de8"></stop>
<stop offset="0.9375" stop-color="#5526e6"></stop>
<stop offset="1.0000" stop-color="#7954e9"></stop>
</radialGradient>
</defs>
<rect width="2172" height="724" fill="#fefdfd" data-index="0"></rect>
<path fill="#5729e6" stroke="#5729e6" stroke-width="0.80" stroke-linejoin="round" fill-rule="evenodd" d="M111.5 117.69 c-17.96 2.44 -34.15 13.72 -41.96 29.24 -3.44 6.84 -5.07 7.33
-5.84 30.61 -.77 23.27 -.68 69.32 -.69 167.26 -.01 98.55 -.11 145.03 .68
168.57 .79 23.54 2.47 24.12 6.01 30.88 4.3 8.19 14.39 18.07 22.49 22 11.47
5.57 13.45 5.76 60.9 5.76 l43.67 0 3.51 -3.88 c6.14 -6.8 5.79 -15.03 -.9
-21.31 l-2.87 -2.7 -42.5 -.3 c-38.38 -.27 -42.89 -.48 -46.5 -2.1 -5.03
-2.26 -10.04 -7.03 -12.84 -12.2 l-2.16 -4 -.26 -177.95 c-.15 -100.01 -.36
-146.26 .46 -168.5 .82 -22.24 2.68 -20.48 6.67 -24.47 3.97 -3.97 4.8 -5.86
16.38 -6.77 11.58 -.9 33.92 -.81 80.89 -.81 l83.28 0 .29 45.75 .29 45.75
2.65 5.65 c3.23 6.88 9.02 12.85 16.07 16.57 l5.28 2.78 40.2 .29 40.2 .29 .3
26.39 .3 26.39 2.96 3.09 c6.01 6.27 15.02 6.49 20.99 .53 4.61 -4.61 4.73
-5.95 4.36 -45.98 -.18 -19.77 -.22 -29.43 -1.58 -35.62 -1.35 -6.19 -4.02
-8.91 -9.45 -14.8 -68.35 -74.13 -95.53 -102.72 -99.6 -104.75 -3.49 -1.74
-8.62 -1.84 -96.19 -1.94 -50.88 -.06 -93.85 .07 -95.5 .3z m231.12 83.81
c14.43 15.4 27.2 29.24 28.38 30.75 l2.14 2.75 -31.04 0 c-29.66 0 -31.08
-.09 -32.07 -1.93 -.65 -1.22 -1.03 -13.99 -1.01 -34.75 l.03 -32.82 3.67 4
c2.02 2.2 15.47 16.6 29.9 32z M813.64 243.72 c-2.86 .44 -2.86 .44 -.06 3.36
3.35 3.5 4.1 3.58 7.12 .74 2.33 -2.19 2.33 -2.19 5.63 1.01 3.3 3.2 3.3 3.2
5.63 .72 2.33 -2.48 2.22 -2.42 -.32 -3.38 -2.42 -.92 -7.21 -1.95 -12.64
-2.59 -1.38 -.16 -3.79 -.1 -5.36 .14z M1463 361 l0 118 19.5 0 19.5 0 0 -9.4
0 -9.4 6.7 6.38 c12.41 11.81 27.31 17.05 45.8 16.1 34.22 -1.76 58.36 -24.16
66.57 -61.76 6.38 -29.23 1.42 -58.8 -13.68 -81.6 -8.53 -12.87 -18.69 -20.66
-33.89 -25.96 -7.22 -2.52 -9.3 -2.79 -21.49 -2.79 -12.11 -0 -14.3 .28
-21.27 2.71 -9.67 3.38 -14.52 6.4 -22.48 14.04 l-6.25 5.99 0 -45.16 0
-45.16 -19.5 0 -19.5 0 0 118z m93.51 -11.91 c7.63 2.85 16.57 11.27 20.45
19.25 4.4 9.04 6.04 16.72 6.02 28.12 -.03 22.87 -8.27 39.13 -23.67 46.71
-5.5 2.71 -7.97 3.3 -15.33 3.65 -28.44 1.36 -44.76 -19.99 -42.65 -55.82
1.43 -24.3 12.79 -39.95 31.94 -44.01 6.07 -1.29 16.79 -.32 23.24 2.1z M1909
360.98 l0 118.02 20 0 20 -0 -.25 -117.75 -.25 -117.75 -19.75 -.27 -19.75
-.27 0 118.02z M2097.67 243.67 c-.37 .37 -.67 20.46 -.67 44.66 l0 43.99
-6.28 -6.03 c-10.62 -10.2 -22.64 -15.17 -38.74 -16 -43.81 -2.27 -75.03
33.74 -74.97 86.5 .03 26.73 8.71 50.37 24.39 66.41 10.08 10.31 20.07 15.66
34.37 18.39 21.67 4.15 40.58 -.96 54.69 -14.77 3.83 -3.75 7.09 -6.82 7.25
-6.82 .16 0 .28 4.28 .28 9.52 l0 9.52 19.75 -.27 c10.86 -.15 19.64 -.61
19.5 -1.02 -.14 -.41 -.25 -53.4 -.25 -117.75 l0 -117 -19.33 0 c-10.63 0
-19.63 .3 -20 .67z m-30.68 103.89 c15.52 3.66 26.68 15.99 30.05 33.19 1.85
9.43 .76 31.13 -1.93 38.67 -4.4 12.32 -10.65 19.6 -20.99 24.44 -7.78 3.65
-23.97 3.86 -31.45 .41 -6.97 -3.22 -11.97 -7.51 -16.23 -13.93 -16.77 -25.27
-9.97 -67.84 12.68 -79.4 9.31 -4.75 17.72 -5.77 27.87 -3.38z M852.07 256.42
c-.9 1.08 -.04 2.32 4.1 5.95 4.84 4.23 5.37 4.46 6.98 3 1.64 -1.49 1.56
-1.75 -1.45 -4.54 -4.93 -4.58 -8.23 -6.09 -9.63 -4.4z M826.48 284.03 c-.99
1.09 -1.61 2.13 -1.39 2.3 .23 .17 1.99 1.39 3.91 2.7 1.92 1.31 3.73 2.67 4
3.02 6.08 7.86 7.39 8.91 9.17 7.29 1.7 -1.54 1.64 -1.79 -1.23 -5.41 -1.65
-2.09 -5.18 -5.62 -7.84 -7.84 -4.78 -4.01 -4.85 -4.03 -6.63 -2.06z M1653.71
314.72 l-4.79 .39 .3 60.69 .3 60.69 2.64 7.23 c8.79 24.13 26.17 37.31 51.34
38.94 19.33 1.25 33.5 -3.61 46.08 -15.81 l7.42 -7.2 0 9.67 0 9.67 19.31 0
19.31 0 -.06 -82.25 -.06 -82.25 -13 -.24 c-7.15 -.13 -15.81 .02 -19.25 .33
l-6.25 .57 0 47.78 c0 27.92 -.42 49.99 -1.01 53.1 -4.06 21.4 -22.68 34.82
-42.55 30.65 -11.44 -2.4 -18.37 -8.15 -22.77 -18.88 -2.12 -5.17 -2.19 -6.74
-2.68 -59.31 l-.5 -54 -14.5 -.08 c-7.97 -.05 -16.66 .09 -19.29 .31z
M1834.67 314.67 c-.37 .37 -.67 37.49 -.67 82.5 l0 81.83 19.5 0 19.5 0 0
-81.85 0 -81.85 -8.25 -.64 c-10.82 -.84 -29.24 -.83 -30.08 .01z M992.67
338.82 c-1.49 1.55 -2.39 3.13 -2.02 3.5 .37 .37 4.52 .68 9.21 .68 8.53 0
8.53 0 5.14 -3.5 -4.35 -4.49 -8.46 -4.72 -12.33 -.68z M1161.18 339.31 c-3.2
3.3 -3.2 3.3 8.39 3.34 11.59 .04 11.59 .04 8.04 -3.51 -3.55 -3.55 -3.55
-3.55 -6.08 -1.17 -2.53 2.38 -2.53 2.38 -4.84 .21 -2.31 -2.17 -2.31 -2.17
-5.51 1.13z M159.5 338.16 c-9.56 5.27 -11.15 16.01 -3.46 23.38 l3.09 2.96
47.16 .28 c32.66 .19 47.98 -.06 49.82 -.82 1.46 -.61 3.95 -2.45 5.53 -4.1
2.5 -2.62 2.86 -3.74 2.83 -8.88 -.04 -6.38 -2.02 -9.64 -7.67 -12.57 -3.5
-1.82 -94.03 -2.04 -97.3 -.24z M1104.66 365.7 c-.39 2.4 -.26 3.93 .36 4.14
.54 .18 .99 1.98 1.01 4 .02 2.17 .86 4.66 2.05 6.09 2.02 2.42 2.02 2.42
4.17 .27 2.15 -2.15 2.15 -2.15 -.07 -5.16 -1.45 -1.96 -2.03 -3.8 -1.65
-5.29 .42 -1.67 -.21 -3.02 -2.34 -5.06 -2.91 -2.79 -2.91 -2.79 -3.53 1.02z
M1070.19 366.3 c-2.19 2.33 -2.19 2.33 .81 5.2 3.54 3.39 3.65 4.18 1 6.99
-1.99 2.12 -1.99 2.12 1.5 5.51 3.45 3.34 3.49 3.35 3.48 .94 -.03 -3.91
-2.93 -19.3 -3.81 -20.17 -.44 -.44 -1.78 .25 -2.98 1.53z M1197.63 385.78
c-.88 1.42 5.81 7.37 7.54 6.7 .83 -.32 2.06 .09 2.74 .91 .68 .82 1.86 1.24
2.64 .95 .79 -.3 3.69 1.46 6.63 4.03 4.99 4.36 5.31 4.49 7.11 2.86 1.83
-1.66 1.78 -1.8 -1.71 -4.72 -1.98 -1.66 -6.18 -4.29 -9.34 -5.86 -3.16 -1.56
-6.44 -3.19 -7.28 -3.62 -2.8 -1.43 -7.76 -2.17 -8.33 -1.25z M1073.73 391.76
c-2.77 2.89 -2.77 2.9 -.75 4.72 3.16 2.86 2.46 3.52 -3.79 3.52 -5.12 0
-6.15 .35 -8.61 2.91 -2.79 2.91 -2.79 2.91 2.56 3.58 2.95 .37 7.15 .52 9.34
.34 3.92 -.32 3.99 -.41 4.79 -5.18 .44 -2.67 .45 -6.63 .02 -8.82 -.79 -3.97
-.79 -3.97 -3.56 -1.08z M953.19 403.3 c-2.52 2.6 -2.94 3.56 -1.97 4.52 .96
.96 .97 1.64 .02 3.15 -.86 1.37 -.91 2.11 -.18 2.56 .57 .35 .89 1.46 .73
2.46 -.16 1 .78 2.98 2.1 4.38 1.85 1.97 2.14 2.87 1.27 3.92 -.88 1.06 -.46
2 1.88 4.24 1.65 1.58 2.81 3.4 2.57 4.03 -.24 .63 2.59 4.15 6.29 7.82 l6.73
6.68 1.92 -2.12 c1.9 -2.1 1.9 -2.13 -.06 -3.18 -7.14 -3.84 -15.59 -17.4
-17.55 -28.15 -1.15 -6.26 -.77 -7.26 2.9 -7.79 l2.33 -.33 -2.88 -2.75 -2.88
-2.75 -3.2 3.3z M988.63 402.86 c-2.74 2.86 -2.74 2.86 1.06 3.49 2.09 .35
6.95 .63 10.8 .63 3.85 0 8.71 -.28 10.8 -.63 3.8 -.63 3.8 -.63 1.06 -3.49
-2.62 -2.74 -3.13 -2.86 -11.87 -2.86 -8.74 0 -9.24 .12 -11.87 2.86z M1039.6
402.89 c-2.77 2.89 -2.77 2.89 2.2 3.58 2.73 .38 7.08 .37 9.65 -.02 4.68 -.7
4.68 -.7 1.93 -3.58 -3.9 -4.07 -9.87 -4.06 -13.78 .02z M803.11 402.37 c-.88
1.06 -.92 1.63 -.16 2.1 .58 .36 1.05 1.3 1.05 2.09 0 .79 .9 2.34 2 3.44 1.1
1.1 2 2.68 2 3.5 0 .82 .86 2.36 1.92 3.42 1.89 1.89 1.94 1.89 3.66 -.01
1.73 -1.91 1.72 -1.95 -.42 -4.23 -1.19 -1.27 -2.16 -2.97 -2.16 -3.79 0 -.82
-1.5 -2.95 -3.34 -4.73 -2.85 -2.76 -3.52 -3.02 -4.55 -1.79z M1231.23 412.21
c-2.2 2.2 -2.2 2.2 -0 4.53 1.79 1.9 1.98 2.68 1.05 4.17 -.96 1.54 -.6 2.36
2.29 5.15 3.43 3.32 3.43 3.32 3.42 .38 -.01 -3.27 -2.23 -12.27 -3.65 -14.8
-.82 -1.46 -1.14 -1.4 -3.11 .57z M1304.75 413.71 c-2.72 2.72 -2.72 2.72 .45
6 3.17 3.27 3.17 3.27 .99 5.6 -2.18 2.33 -2.18 2.33 .87 5.25 1.76 1.69 2.87
3.63 2.62 4.59 -.27 1.04 1.51 3.59 4.76 6.79 5.09 5.03 5.23 5.09 6.96 3.19
1.7 -1.88 1.6 -2.09 -2.97 -6.28 -5.62 -5.16 -9.39 -12.95 -9.49 -19.62 -.04
-2.6 -.38 -5.51 -.77 -6.48 -.62 -1.57 -.98 -1.47 -3.42 .97z M159.46 420.88
c-9.47 4.3 -11.16 16.24 -3.37 23.71 l3.04 2.91 43.19 .26 c41.46 .25 43.31
.18 46.39 -1.71 9.2 -5.66 8.67 -20.23 -.91 -25.15 -3.47 -1.78 -6.32 -1.9
-44 -1.88 -36.93 .02 -40.63 .18 -44.33 1.86z M1268.67 423.66 c-.41 2.53
-.26 3.98 .47 4.43 .72 .45 .86 1.67 .41 3.7 -.42 1.9 -.29 3.26 .34 3.65 .55
.34 1.31 2.7 1.69 5.24 .38 2.54 1.4 5.45 2.26 6.45 1.48 1.73 1.66 1.74 3.36
.2 2.42 -2.19 2.28 -3.21 -.88 -6.5 -2.42 -2.53 -2.55 -3.02 -1.35 -5.27 1.06
-1.97 1.08 -2.77 .13 -3.92 -.66 -.79 -.93 -2.5 -.6 -3.8 .44 -1.77 -.14
-3.06 -2.32 -5.15 -2.91 -2.79 -2.91 -2.79 -3.52 .97z M1234.35 437.18 c-2.56
2.7 -2.94 3.63 -2.03 5.02 .89 1.36 .66 2.19 -1.11 4.07 -2.22 2.37 -2.22
2.37 .14 4.59 2.37 2.22 2.37 2.22 3.47 -.57 1.83 -4.61 3.37 -11.89 3.01
-14.23 -.32 -2.09 -.49 -2.03 -3.49 1.12z M825.28 440.12 c-1.22 1.22 .04
5.38 2.46 7.91 .69 .73 1.28 1.49 1.28 2.02 0 .53 .8 1.91 1.81 3 1.83 1.97
1.84 1.97 3.65 -.04 1.73 -1.91 1.74 -2.1 .17 -3.84 -.91 -1.01 -1.65 -2.27
-1.65 -2.8 0 -.54 -1.48 -2.41 -3.3 -4.17 -2.44 -2.37 -3.59 -2.91 -4.42
-2.07z M1138.2 441.2 c-.93 .93 -.51 1.92 1.92 4.42 1.72 1.77 3.65 3.02 4.3
2.77 .65 -.25 2.22 .66 3.49 2.01 1.92 2.04 2.77 2.34 4.3 1.38 1.53 -.96
2.19 -.78 4.5 1.37 1.53 1.43 3.36 2.38 4.07 2.12 .71 -.26 1.97 .1 2.81 .8
1.27 1.06 2.02 .77 4.55 -1.76 3.02 -3.02 3.02 -3.02 -4.34 -4.21 -7.56 -1.22
-16.16 -4.42 -20.67 -7.97 -2.98 -2.34 -3.31 -2.56 -4.92 -.94z M874.66
446.82 c-1.55 1.71 -1.46 2 1.37 4.71 1.66 1.59 2.82 3.42 2.57 4.06 -.25 .65
.88 2.45 2.5 4 1.62 1.55 2.75 3.35 2.5 4 -.25 .65 .88 2.45 2.5 4 1.62 1.55
2.76 3.33 2.52 3.95 -.76 1.99 4.34 7.45 6.95 7.45 1.34 0 2.43 -.18 2.43
-.52 0 -1.02 -20.45 -33.48 -21.1 -33.48 -.33 -0 -1.34 .82 -2.24 1.82z M1368
465.06 c-3.58 3.23 -7.02 5.7 -7.66 5.48 -.64 -.22 -1.9 .42 -2.81 1.43 -1.01
1.12 -3.04 1.83 -5.18 1.83 -2.51 0 -4.38 .82 -6.47 2.82 -2.47 2.37 -3.22
2.63 -4.66 1.59 -3.46 -2.48 -4.41 -2.4 -7.36 .43 l-3.1 2.83 3.24 .66 c9.69
1.98 28.32 -5.31 38.74 -15.25 4.61 -4.39 4.93 -5.1 3.02 -6.67 -.92 -.76
-2.96 .52 -7.75 4.85z M962.68 471.8 c-1.57 1.74 -1.56 1.86 .36 3.5 1.09 .93
2.77 1.7 3.72 1.71 .96 0 3.03 .68 4.6 1.5 1.58 .82 4.07 1.49 5.55 1.49 1.48
0 3.12 .43 3.65 .97 1.12 1.12 15.33 2.02 15.95 1.01 .23 -.37 -.91 -1.94
-2.56 -3.52 -2.64 -2.53 -3.27 -2.74 -5.09 -1.61 -1.82 1.14 -2.27 1.1 -3.89
-.37 -1.18 -1.07 -2.6 -1.27 -3.99 -.83 -1.42 .45 -2.81 -.08 -4.12 -1.26
-1.68 -1.52 -2.41 -1.49 -4.16 -.4 -1.8 1.12 -2.28 .85 -4.63 -1.4 -3.2 -3.07
-3.31 -3.08 -5.4 -.78z M1302.49 474.02 c-1.78 1.97 -1.78 2.05 .08 3.41 1.05
.77 3.69 1.68 5.87 2.03 2.18 .35 4.44 1.02 5.01 1.5 1.11 .91 7.07 1.51
12.01 1.21 2.94 -.18 2.84 -.22 -.09 -3.28 -1.97 -2.05 -3.49 -2.83 -4.81
-2.48 -1.08 .28 -2.56 .01 -3.3 -.6 -1.03 -.85 -1.9 -.8 -3.81 .22 -2.25 1.2
-2.74 1.08 -5.27 -1.35 -3.35 -3.21 -3.39 -3.21 -5.7 -.66z M1194.5 473.72
c-1.1 .27 -2.46 .87 -3.08 1.37 -.62 .5 -1.91 .65 -2.83 .3 -.95 -.36 -2.47
.09 -3.53 1.05 -1.66 1.5 -2.1 1.55 -3.93 .4 -1.82 -1.13 -2.42 -.94 -5.06
1.58 -1.65 1.58 -2.81 3.18 -2.58 3.56 1.03 1.67 20.79 -.79 26.22 -3.27 2.32
-1.06 2.32 -1.06 .13 -3.39 -1.2 -1.28 -2.45 -2.28 -2.77 -2.22 -.32 .06
-1.48 .34 -2.58 .61z M1018 474.73 c-1.38 .25 -3.24 1.12 -4.15 1.93 -1.41
1.26 -1.95 1.29 -3.72 .19 -1.82 -1.13 -2.42 -.94 -5.06 1.58 -1.65 1.58
-2.78 3.22 -2.52 3.65 .89 1.44 16.26 -.17 21.74 -2.28 2.79 -1.08 2.79 -1.08
.58 -3.44 -1.22 -1.3 -2.7 -2.3 -3.29 -2.22 -.59 .07 -2.2 .34 -3.58 .59z" data-index="1"></path>
<path fill="#070f2c" stroke="#070f2c" stroke-width="0.80" stroke-linejoin="round" fill-rule="evenodd" d="M708 360.95 l0 118.05 21.5 0 21.5 0 0 -43.52 0 -43.52 22.24 .27 22.24 .27
7.26 12.5 c3.99 6.88 15.24 26.12 25 43.04 l17.75 30.96 26.26 0 c14.44 0
26.26 -.29 26.26 -.52 0 -.23 -7.95 -12.84 -17.66 -28.15 -34.14 -53.81
-41.34 -65.24 -41.34 -65.66 0 -.24 4.21 -2.52 9.35 -5.07 26.99 -13.39 40.16
-38.94 36.83 -71.41 -1.91 -18.63 -7.21 -30.96 -18.54 -42.49 -8.9 -9.06
-19.36 -14.99 -35.01 -19.53 l-9.14 -2.56 -57.25 -.35 -57.25 -.35 0 118.05z
m105.13 -78.65 c21.21 4.46 33.65 21.92 29.98 42.47 -2.29 12.81 -10.21 22.31
-22.86 27.41 -5.53 2.23 -6.99 2.33 -37.5 2.62 l-31.75 .31 0 -37.05 0 -37.05
28.45 0 c17.08 0 30.5 .63 33.68 1.3z M985.81 311.01 c-28.85 4.58 -49.24
19.03 -61.29 43.44 -12.97 26.27 -12.37 63.49 1.42 87.75 16.18 28.47 47.85
43.54 83.81 39.9 25.23 -2.56 46.39 -13.83 59.02 -31.43 l3.27 -4.56 -4.27
-2.41 c-2.35 -1.33 -9.22 -5.19 -15.26 -8.59 l-10.99 -6.18 -1.96 2.79 c-3.99
5.68 -10.15 10.66 -17.51 14.17 -7.46 3.57 -7.72 3.61 -20.06 3.57 -10.47
-.04 -13.4 -.4 -18 -2.24 -15.05 -6.01 -26.95 -21.55 -27.36 -35.71 l-.14 -5
60.25 -.26 60.25 -.26 0 -10.55 c0 -43.14 -20.81 -72.97 -57.5 -82.46 -9.12
-2.36 -25.27 -3.3 -33.69 -1.96z m21.65 32.52 c15.59 4.06 27.57 16.53 29.21
30.41 l.57 4.78 -7.87 .58 c-6.11 .45 -43.29 .29 -69.78 -.27 -2.75 -.06
-2.73 -.17 -2.24 -3.81 1.45 -10.83 10.94 -23.12 22.01 -28.31 10.5 -4.91
18.51 -5.88 28.1 -3.38z M1156 311.05 c-21.57 3.18 -40.55 15.05 -47.07 29.45
-7.95 17.54 -5.64 37.38 5.79 49.64 9.04 9.69 15.3 12.4 48.01 20.82 24.92
6.41 29.56 8.21 33.65 13.07 2.15 2.56 2.63 4.13 2.63 8.73 0 5.38 -.19 5.79
-4.76 10.19 -5.4 5.21 -10.08 6.96 -20.66 7.76 -14.58 1.1 -26.52 -3.66
-36.98 -14.75 -3.61 -3.83 -6.76 -6.97 -6.99 -6.97 -1.07 0 -29.16 17.21
-29.45 18.05 -1.15 3.28 15.36 19.93 25.09 25.32 28.45 15.74 74.73 13.06
97.04 -5.62 13.15 -11.01 18.52 -29.15 14.14 -47.74 -1.92 -8.14 -4.98 -13.41
-11.54 -19.83 -9.07 -8.88 -16.93 -12.25 -47.35 -20.29 -22.45 -5.94 -27.54
-7.97 -31.68 -12.69 -2.81 -3.2 -3.06 -4.02 -2.62 -8.6 .42 -4.39 1.03 -5.55
4.58 -8.7 12.97 -11.51 39.44 -8.12 53.26 6.84 2.16 2.34 4.12 4.25 4.35 4.25
.65 0 25.88 -16.11 27.32 -17.45 2.85 -2.64 -11.6 -16.6 -23.76 -22.95 -14.97
-7.82 -35.51 -11.13 -53.03 -8.55z M1268.48 319.25 c-.35 2.34 -.46 28.78
-.24 58.75 .39 53.02 .46 54.7 2.65 61.99 3.33 11.1 7.75 18.73 15.07 26.01
11.46 11.39 24.91 16.39 44.04 16.37 18.92 -.02 30.22 -4.24 42.97 -16.05
3.76 -3.48 7.1 -6.32 7.43 -6.32 .33 0 .6 4.27 .6 9.5 l0 9.5 19.5 0 19.5 0 0
-82 0 -82 -19.5 0 -19.5 0 -.01 46.75 c-0 25.71 -.43 49.34 -.95 52.51 -3.32
20.3 -18.67 33.33 -39.04 33.17 -14.7 -.12 -24.02 -5.85 -29.9 -18.39 l-2.6
-5.55 -.3 -54.25 -.3 -54.25 -19.39 0 -19.39 0 -.64 4.25z" data-index="2"></path>
<path fill="#04a596" stroke="#04a596" stroke-width="0.80" stroke-linejoin="round" fill-rule="evenodd" d="M179.4 246.14 c-10.71 10.54 -12.56 13.76 -10.35 18.05 .65 1.27 5.59 6.7
10.98 12.06 8.96 8.93 10.11 9.75 13.61 9.75 3.54 0 4.63 -.82 14.59 -10.88
7.22 -7.29 10.83 -10.82 10.82 -14.32 -.01 -3.49 -3.64 -6.96 -10.9 -14.11
-7.33 -7.22 -10.99 -10.83 -14.58 -10.9 -3.59 -.07 -7.11 3.4 -14.17 10.35z
M857.22 260.18 c-.91 .91 .14 2.61 4.55 7.37 3.15 3.4 7.47 8.29 9.59 10.85
3.09 3.74 4.13 4.44 5.25 3.51 2.09 -1.73 -1.81 -8 -9.95 -16.23 -7.05 -7.13
-7.53 -7.41 -9.43 -5.51z M806.53 277.97 l-2.81 2.93 2.39 .5 c1.31 .27 4.51
.58 7.02 .9 6.72 .87 15.8 5.77 20.88 10.99 4.18 4.29 4.58 4.48 6.26 2.97
1.7 -1.54 1.55 -1.86 -2.95 -6.44 -2.61 -2.65 -5.15 -4.82 -5.65 -4.82 -.5 0
-2.43 -1.34 -4.29 -2.97 -1.86 -1.63 -3.98 -2.74 -4.72 -2.45 -.74 .28 -1.9
-.15 -2.57 -.97 -.68 -.82 -1.83 -1.26 -2.56 -.98 -.73 .28 -1.61 .05 -1.96
-.52 -.37 -.6 -1.25 -.79 -2.11 -.46 -.81 .31 -2.07 .08 -2.8 -.53 -1 -.83
-1.99 -.39 -4.12 1.83z M877.12 286.37 c-1.53 1.63 -1.91 2.65 -1.14 3.12 .62
.38 .94 1.22 .7 1.86 -.23 .64 .51 2.19 1.66 3.45 1.68 1.85 1.87 2.65 .95
4.11 -.92 1.47 -.73 2.22 .97 3.92 2.06 2.06 2.07 2.14 .42 3.97 -2.37 2.61
-2.17 3.36 1.94 7.26 3.63 3.45 3.63 3.45 2.99 -4.67 -.63 -8.02 -3.36 -20.31
-5.25 -23.69 -.9 -1.6 -1.16 -1.55 -3.25 .68z M1008.65 311.68 c-1.19 1.19
4.36 6.13 6.31 5.62 1 -.26 2.13 .04 2.51 .66 .53 .86 1.05 .84 2.14 -.06
1.15 -.95 1.9 -.76 3.73 .96 2.29 2.15 2.29 2.15 4.51 -.21 2.22 -2.37 2.22
-2.37 -.57 -3.49 -3.63 -1.45 -14.25 -4.16 -16.34 -4.16 -.89 0 -1.93 .31
-2.3 .68z M882.17 322.31 c-2.96 3.06 -3.19 3.68 -2.04 5.51 1.15 1.84 1.1
2.27 -.42 3.95 -.94 1.04 -1.42 2.18 -1.06 2.53 .35 .35 .13 1.26 -.49 2.01
-.62 .75 -.85 1.65 -.5 2 .35 .35 .13 1.25 -.5 2 -.87 1.05 -.6 1.86 1.19
3.54 2.32 2.18 2.32 2.18 3.45 -.3 1.74 -3.81 4.39 -17.97 4.03 -21.52 -.32
-3.17 -.32 -3.17 -3.65 .28z M515.46 329.99 c-48.91 17.85 -81.92 26.89
-125.72 34.46 -10.74 1.86 -15.27 15.86 -7.61 23.52 5.28 5.28 8.18 5.44
27.86 1.46 26.27 -5.31 42.22 -8.95 66.31 -15.11 11.98 -3.07 22.05 -5.31
22.37 -4.99 .76 .76 -15.8 23.21 -31.08 42.15 -13.02 16.13 -37.3 41.69
-52.52 55.27 -34.63 30.92 -75.32 53.73 -116.13 65.12 -24.52 6.84 -43.8 9.61
-78.43 11.28 -13.75 .66 -25.17 1.33 -25.38 1.49 -.21 .16 1.02 1.47 2.73 2.9
6.59 5.55 6.33 15.46 -.56 21.51 l-3.68 3.23 26.44 -.58 c41.35 -.9 68.59
-5.46 102.78 -17.17 65.66 -22.5 117.84 -63.19 182.15 -142.02 8.97 -11 16.47
-20.19 16.66 -20.42 1.58 -1.89 .95 5.67 -3.13 38.11 -2.59 20.52 -4.5 39.46
-4.25 42.09 1.29 13.72 19.88 17.33 26.85 5.21 1.15 -1.99 2.61 -10.04 4.37
-24 1.46 -11.55 5.06 -38.32 8.01 -59.5 7.97 -57.23 8.07 -58.15 6.67 -62.83
-1.81 -6.04 -9.52 -11.34 -16.17 -11.1 -.83 .03 -13.67 4.49 -28.54 9.92z
M1209.08 321.4 c-.93 1.12 -.23 2.16 3.49 5.25 7.55 6.26 14.43 12.58 14.41
13.24 -.02 .6 -9.52 7.23 -11.48 8.01 -.55 .22 -2.96 1.73 -5.35 3.37 l-4.35
2.97 -4.72 -4.65 c-4.56 -4.49 -4.77 -4.59 -6.41 -2.77 -1.61 1.78 -1.54 1.99
1.47 4.28 3.89 2.96 4.84 3.89 7.25 7.12 l1.9 2.54 14.1 -9.03 c7.76 -4.97
14.27 -9.16 14.47 -9.33 .98 -.79 -4.68 -7.96 -10.09 -12.79 -8.24 -7.34
-13.14 -10.08 -14.69 -8.21z M1053.79 334.64 c-1.43 1.43 -1.19 2.13 2.73
7.72 6.01 8.59 8.84 11.12 10.36 9.3 .94 -1.13 .16 -2.92 -3.83 -8.89 -6.34
-9.48 -7.17 -10.21 -9.25 -8.12z M992.64 337.79 c-1.28 1.28 -1.77 1.34 -2.91
.39 -1.08 -.9 -2.07 -.42 -4.64 2.22 -3.81 3.93 -2.82 5.32 2.53 3.55 4.35
-1.43 16.61 -1.46 21.27 -.05 4.99 1.52 5.7 .3 2.04 -3.49 -1.78 -1.84 -3.65
-3.1 -4.13 -2.8 -.49 .3 -1.66 .21 -2.59 -.21 -3.23 -1.44 -9.97 -1.22 -11.57
.37z M1161.48 337.03 c-.35 .56 -1.16 .93 -1.81 .81 -2.88 -.53 -7.63 1.52
-10.57 4.55 -2.75 2.83 -2.99 3.47 -1.72 4.52 1.23 1.02 1.86 .98 3.81 -.3
7.48 -4.9 21.78 -5.57 33.42 -1.57 7.93 2.73 9.69 1.9 5.4 -2.52 -3.1 -3.2
-7.8 -5.21 -10.84 -4.64 -.73 .14 -1.98 -.3 -2.79 -.96 -1.19 -.99 -2.02 -.68
-4.43 1.63 l-2.96 2.84 -2.8 -2.69 c-3.08 -2.95 -3.77 -3.19 -4.71 -1.66z
M966.66 350.04 c-4.22 3.94 -7.66 7.61 -7.66 8.16 0 .55 -1.13 2.35 -2.51
3.99 -1.38 1.64 -2.23 3.42 -1.9 3.96 .33 .54 -.17 1.84 -1.12 2.88 -.95 1.05
-1.72 3.16 -1.71 4.69 .01 1.53 -.38 3.27 -.85 3.86 -.54 .67 .36 2.26 2.42
4.26 l3.28 3.18 2.88 -3.01 2.9 -2.98 -2.8 0 c-2.69 0 -2.9 -.2 -2.24 -3.81
1.76 -9.52 9.43 -20.27 18.64 -26.39 l2.5 -1.66 -2.09 -2.14 -2.09 -2.14
-7.66 7.16z M1141.21 349.28 c-3.2 3.3 -3.2 3.3 -1 5.49 2.19 2.19 2.19 2.19
-.6 5.11 -2.79 2.92 -2.79 2.92 .96 7.07 3.13 3.47 3.97 3.93 5.09 2.82 1.12
-1.12 1.01 -1.99 -.66 -5.26 -1.1 -2.16 -2 -4.86 -2 -6 0 -1.14 .9 -3.84 2 -6
1.64 -3.21 1.77 -4.16 .71 -5.22 -1.06 -1.06 -1.87 -.7 -4.49 2z M873.37
351.27 c-1.64 1.78 -4.18 4.86 -5.63 6.86 -2.58 3.53 -2.6 3.68 -.78 5.32
1.79 1.62 2.05 1.45 5.84 -3.63 5.67 -7.62 6.47 -9.37 4.87 -10.7 -.99 -.82
-2.03 -.3 -4.29 2.14z M1067.32 357.13 c-1.82 1.82 -1.98 2.57 -1.08 5.25 .57
1.72 1.98 4.16 3.12 5.42 1.78 1.97 1.89 2.58 .79 4.35 -1.15 1.85 -1.1 2.25
.49 4.01 1.41 1.55 1.54 2.34 .64 3.78 -.95 1.53 -.57 2.36 2.42 5.19 3.55
3.38 3.55 3.38 2.87 -3.86 -.71 -7.5 -3.73 -19.81 -5.88 -23.91 -1.23 -2.36
-1.23 -2.36 -3.36 -.23z M858.51 367.99 c-1 1.1 -2.33 2.01 -2.97 2.01 -.63 0
-2.61 1.5 -4.39 3.34 -2.69 2.77 -3 3.54 -1.85 4.5 1.09 .91 2.68 .32 7.42
-2.74 7.26 -4.69 7.74 -5.36 5.41 -7.47 -1.76 -1.59 -1.87 -1.58 -3.63 .37z
M836.16 382.33 c-2.86 2.95 -3.06 3.5 -1.71 4.63 .85 .7 1.54 1.82 1.54 2.47
0 .65 1.36 2.49 3.03 4.09 1.66 1.59 2.83 3.41 2.59 4.03 -.24 .62 .63 2.44
1.94 4.04 1.31 1.6 2.39 3.3 2.41 3.78 .02 .48 1.5 2.96 3.29 5.5 1.79 2.54
3.92 5.92 4.74 7.5 .82 1.58 3.21 4.84 5.32 7.23 2.11 2.39 3.58 4.75 3.28
5.25 -.3 .49 1.27 2.97 3.5 5.5 2.23 2.53 3.8 5.01 3.5 5.5 -.3 .49 1.27 2.97
3.5 5.5 2.23 2.53 3.81 4.99 3.52 5.47 -.29 .48 .81 2.15 2.46 3.73 1.64 1.58
2.79 3.39 2.54 4.04 -.25 .65 .88 2.45 2.5 4 1.62 1.55 2.75 3.35 2.5 3.99
-.25 .64 1.02 2.59 2.82 4.33 2.82 2.73 3.43 2.96 4.5 1.68 .65 -.78 1.09
-.98 -3.89 -9.27 -4.98 -8.29 -15.39 -24.67 -36.43 -57.83 -13.18 -20.77
-14.43 -23.12 -12.89 -24.26 1.57 -1.16 1.58 -1.38 .2 -2.76 -1.33 -1.33
-1.86 -1.13 -4.75 1.85z M792.56 388.94 c-2.93 3.06 -2.93 3.06 -.47 3.06 2.6
0 7.91 5.1 7.91 7.59 0 .76 .76 2.28 1.7 3.37 1.64 1.92 1.76 1.93 3.52 .34
1.75 -1.58 1.72 -1.75 -.81 -4.39 -1.45 -1.51 -2.33 -3.22 -1.97 -3.81 .36
-.59 -1.05 -2.9 -3.14 -5.14 -3.8 -4.08 -3.8 -4.08 -6.74 -1.01z M1122.7
393.78 c-1.55 1.72 -1.55 1.9 .13 3.27 .98 .8 3.55 2.29 5.72 3.31 2.17 1.02
4.73 2.26 5.68 2.75 .96 .49 2.62 .89 3.69 .89 1.08 0 2.23 .45 2.57 1 .34
.55 1.72 1 3.07 1 1.35 0 3.24 .45 4.19 .99 .96 .55 8.94 2.78 17.74 4.95
18.63 4.61 23.54 6.23 27.6 9.13 2.43 1.73 3.24 1.89 4.48 .86 1.31 -1.09
1.09 -1.68 -1.69 -4.55 -1.76 -1.82 -3.61 -3.05 -4.12 -2.74 -.5 .31 -1.89
-.31 -3.09 -1.39 -2.93 -2.64 -5.2 -3.33 -6.54 -1.99 -.81 .81 -1.72 .56
-3.37 -.95 -1.24 -1.13 -2.78 -1.87 -3.42 -1.63 -.64 .23 -1.44 -.03 -1.78
-.58 -.35 -.56 -1.23 -.78 -1.99 -.48 -.75 .29 -1.65 .06 -2 -.5 -.35 -.56
-1.25 -.79 -2 -.5 -.75 .29 -1.65 .06 -2 -.5 -.36 -.58 -1.23 -.8 -2 -.5 -.75
.29 -1.65 .06 -2 -.5 -.35 -.56 -1.25 -.79 -2 -.5 -.75 .29 -1.65 .06 -2 -.5
-.35 -.56 -1.25 -.79 -2 -.5 -.75 .29 -1.65 .06 -2 -.5 -.35 -.56 -1.25 -.79
-2 -.5 -.75 .29 -1.68 .02 -2.06 -.59 -.52 -.84 -1.05 -.82 -2.12 .07 -1.13
.94 -1.87 .79 -3.52 -.7 -1.15 -1.04 -2.87 -1.76 -3.83 -1.6 -.96 .16 -2.29
-.38 -2.97 -1.19 -.67 -.81 -1.8 -1.26 -2.49 -.99 -.7 .27 -1.84 -.2 -2.54
-1.05 -.7 -.84 -1.71 -1.27 -2.23 -.94 -.53 .33 -1.98 -.36 -3.22 -1.53 -2.24
-2.1 -2.27 -2.1 -3.9 -.3z M1218.25 396.15 c-1.72 1.72 12.49 17.31 14.37
15.75 1.89 -1.57 -.5 -5.87 -6.67 -12.05 -5.16 -5.16 -5.88 -5.51 -7.69 -3.7z
M952.76 410.7 c-2.73 2.73 -2.73 2.73 .46 6.03 2.91 3 3.05 3.43 1.61 4.88
-1.4 1.4 -1.43 1.89 -.24 4.27 .74 1.48 2.64 3.93 4.22 5.45 2.33 2.24 3.09
2.51 3.99 1.43 .83 -1 .39 -2.76 -1.82 -7.12 -1.61 -3.18 -3.2 -7.44 -3.53
-9.46 -.34 -2.02 -.92 -4.69 -1.29 -5.94 -.67 -2.27 -.67 -2.27 -3.41 .47z
M1304.52 414.98 c-2.78 2.9 -2.81 3.04 -1.05 4.98 1.37 1.51 1.54 2.33 .69
3.34 -.86 1.04 -.34 2.1 2.33 4.68 3.85 3.73 5.46 2.64 3.55 -2.38 -.57 -1.51
-1.05 -4.62 -1.06 -6.92 -.02 -6.34 -1.09 -7.23 -4.47 -3.7z M1232.1 416.39
c-1.57 1.67 -1.9 2.61 -1.09 3.11 .64 .4 .95 1.53 .69 2.52 -.3 1.15 .76 3
2.91 5.08 3.38 3.28 3.38 3.28 3.38 .16 0 -3.9 -2.12 -13.27 -3 -13.27 -.36 0
-1.67 1.08 -2.9 2.39z M811.68 415.65 c-1.02 1.02 -.82 5.35 .25 5.35 .51 0
1.24 .98 1.62 2.17 .38 1.2 1.46 3 2.4 4.01 1.67 1.79 1.76 1.79 3.4 -.03
1.55 -1.71 1.56 -1.98 .17 -3.13 -.84 -.7 -1.53 -1.8 -1.53 -2.46 0 -1.63
-5.48 -6.76 -6.32 -5.91z M1040.98 430.53 c-1.05 1.27 -.88 1.95 1.02 3.97
1.26 1.34 2.71 2.18 3.23 1.86 .51 -.32 2.17 .61 3.68 2.05 2.75 2.63 2.75
2.63 4.6 .59 2.15 -2.38 1.97 -2.59 -5.63 -6.85 -4.97 -2.79 -5.77 -2.97 -6.9
-1.62z M922.68 430.65 c-1.03 1.03 -.81 5.35 .27 5.35 .52 0 1.38 1.55 1.9
3.44 .52 1.89 1.89 4.45 3.05 5.69 1.15 1.24 2.1 2.79 2.1 3.46 0 .66 .67
1.46 1.5 1.78 .83 .32 1.5 1.16 1.5 1.87 0 2.21 3.91 4.09 5.59 2.7 1.21
-1.01 .89 -1.85 -2.08 -5.48 -1.93 -2.36 -3.51 -4.74 -3.51 -5.29 0 -.55
-1.16 -2.38 -2.57 -4.06 -1.41 -1.68 -2.33 -3.45 -2.04 -3.92 .69 -1.11 -4.81
-6.43 -5.71 -5.52z M1234.32 436.25 c-1.69 1.79 -2.86 3.83 -2.6 4.53 .26 .71
-.02 1.87 -.61 2.59 -.81 .98 -.47 1.88 1.37 3.61 2.46 2.31 2.46 2.31 3.57
-.59 1.17 -3.03 2.55 -13.4 1.78 -13.4 -.24 0 -1.83 1.46 -3.52 3.25z
M1141.21 443.19 c-1.8 1.8 4.54 8.26 6.5 6.63 1.07 -.88 1.95 -.51 4.5 1.97
3.27 3.17 3.41 3.24 5.74 .75 2.33 -2.48 2.33 -2.49 .44 -3.13 -1.58 -.53
-13.5 -6.25 -15.28 -7.27 -.3 -.17 -1.24 .38 -1.91 1.04z M827.58 443.87
c-.81 1.3 .32 6.19 1.44 6.19 .45 0 1.42 1.52 2.11 3.44 .7 1.93 1.6 3.5 2
3.5 .4 0 1.3 1.57 2 3.5 .7 1.93 1.6 3.5 2 3.5 .4 0 1.3 1.57 2 3.5 .7 1.93
1.6 3.5 2 3.5 .4 0 1.31 1.59 2.01 3.53 .8 2.21 2.11 3.74 3.51 4.09 3.94 .99
4.74 -.61 1.82 -3.66 -1.48 -1.54 -2.43 -3.23 -2.11 -3.74 .32 -.51 -.55
-1.99 -1.92 -3.28 -1.37 -1.29 -2.29 -2.88 -2.04 -3.54 .25 -.66 -.65 -2.23
-2 -3.5 -1.35 -1.27 -2.25 -2.84 -2 -3.5 .25 -.66 -.65 -2.23 -2 -3.5 -1.35
-1.27 -2.25 -2.84 -2.01 -3.49 .61 -1.58 -5.97 -7.91 -6.81 -6.55z M1066.08
444.4 c-.59 .71 -.77 1.59 -.4 1.95 .37 .37 -.55 1.94 -2.03 3.48 -2.61 2.72
-2.64 2.87 -.85 4.49 1.74 1.57 1.97 1.54 3.86 -.58 2.43 -2.71 5.33 -6.96
5.33 -7.81 0 -.34 -1.09 -1.11 -2.42 -1.72 -1.92 -.87 -2.65 -.84 -3.49 .18z
M1376.17 456.32 c-3.13 3.23 -3.17 3.37 -1.34 5.03 1.72 1.56 1.99 1.57 3.14
.19 1.58 -1.9 3.03 -1.08 3.03 1.71 0 2 .18 1.96 3.01 -.75 3.01 -2.88 3.01
-2.88 -.2 -6.19 -1.76 -1.82 -3.48 -3.31 -3.81 -3.31 -.33 0 -2.06 1.5 -3.83
3.32z M942.09 458.4 c-1.45 1.75 .36 5.29 3.16 6.18 .96 .31 1.75 .9 1.75
1.33 0 .42 1.09 1.27 2.42 1.88 1.91 .87 2.65 .83 3.48 -.16 1.03 -1.24 -.69
-3.28 -7.51 -8.92 -1.91 -1.58 -2.22 -1.61 -3.31 -.3z M1116.09 462.39 c-1.34
1.62 .41 5.61 2.46 5.61 .59 0 1.98 .84 3.09 1.88 2.45 2.28 5.95 3.49 7.44
2.57 1.17 -.72 -4.67 -7.45 -6.46 -7.45 -.54 0 -1.96 -.91 -3.15 -2.03 -1.87
-1.76 -2.33 -1.83 -3.37 -.58z M1219.43 463.07 c-1.04 1.15 -3.47 2.75 -5.4
3.56 -1.93 .81 -4.41 2.3 -5.52 3.31 -1.11 1.02 -3.27 1.84 -4.82 1.83 -1.59
-.01 -3.88 .99 -5.29 2.32 -2.08 1.96 -2.8 2.14 -4.4 1.15 -1.36 -.85 -2.14
-.87 -2.59 -.14 -.35 .57 -1.41 .87 -2.4 .7 -.99 -.16 -2.75 .56 -3.91 1.61
-2.02 1.82 -2.19 1.83 -3.94 .25 -1.01 -.91 -2.27 -1.65 -2.81 -1.65 -1.39 0
-6.51 5.51 -5.79 6.24 1.66 1.66 26.92 -2.41 32.27 -5.2 .91 -.47 4.13 -2.02
7.16 -3.44 3.03 -1.42 7.23 -4.05 9.34 -5.85 3.76 -3.2 3.8 -3.31 1.91 -5.02
-1.9 -1.72 -1.95 -1.71 -3.82 .35z M1289.09 465.39 c-1.34 1.62 .41 5.61 2.46
5.61 .59 0 1.96 .79 3.04 1.75 1.08 .96 3.53 2.47 5.44 3.36 8.49 3.93 10.24
4.52 15.97 5.37 5.34 .78 6.24 .86 9.46 .69 l3.08 -.11 -3.17 -3.17 c-2.7
-2.7 -3.48 -3.04 -4.83 -1.92 -1.35 1.12 -1.82 1.1 -3.31 -.2 -.95 -.83 -2.25
-1.32 -2.89 -1.09 -.64 .23 -1.44 -.03 -1.78 -.59 -.35 -.56 -1.23 -.78 -1.99
-.48 -.75 .29 -1.65 .06 -2 -.5 -.35 -.56 -1.22 -.8 -1.94 -.52 -.72 .28
-1.86 -.17 -2.54 -.98 -.68 -.82 -1.79 -1.27 -2.47 -1.01 -.68 .26 -2.07 -.44
-3.08 -1.56 -1.01 -1.12 -2.31 -2.04 -2.87 -2.04 -.57 0 -2 -.91 -3.19 -2.03
-1.87 -1.76 -2.33 -1.83 -3.37 -.58z M1363.73 468.11 c-2.59 2.21 -5.09 3.79
-5.56 3.5 -.47 -.29 -2.35 1.02 -4.18 2.9 -2.77 2.86 -3.05 3.53 -1.69 4.05 2
.77 11.11 -3.73 16.17 -7.97 3.59 -3.02 3.65 -3.17 1.84 -4.81 -1.78 -1.61
-2.11 -1.49 -6.58 2.33z M954.64 467.84 c-1.52 1.68 -1.44 1.94 1.08 3.98
1.49 1.2 3.51 2.18 4.49 2.18 .98 0 1.78 .45 1.78 1 0 .55 .62 1 1.39 1 .76 0
2.67 .67 4.25 1.49 1.58 .82 4.03 1.5 5.45 1.5 1.42 0 2.89 .32 3.27 .69 .38
.38 1.47 .8 2.42 .93 .95 .13 3.53 .53 5.73 .89 6.05 .98 11.56 1.2 12.02 .47
.22 -.36 -.94 -1.96 -2.56 -3.52 -2.87 -2.75 -2.97 -2.75 -4.94 -.97 -1.97
1.78 -2.07 1.78 -4.13 -.08 -1.16 -1.05 -2.91 -1.92 -3.9 -1.76 -.99 .16
-2.12 -.05 -2.49 -.65 -.5 -.81 -1.05 -.79 -2.12 .1 -1.15 .95 -1.8 .64 -3.67
-1.11 -1.29 -1.21 -3.53 -2.14 -4.84 -2.21 -1.31 -.07 -3.05 -.61 -3.88 -1.21
-.83 -.6 -2.9 -1.86 -4.62 -2.8 -2.98 -1.64 -3.19 -1.64 -4.74 .08z M1030.82
471.87 c-2.58 .9 -5.75 2.65 -7.06 3.88 -2.8 2.65 -4.05 2.8 -5.78 .72 -1.13
-1.36 -1.54 -1.28 -3.61 .66 -2.19 2.06 -2.45 2.09 -4.18 .53 -2.52 -2.28
-3.37 -2.12 -6.58 1.23 -3.54 3.7 -2.23 4.58 5.22 3.51 3.12 -.45 6.12 -.87
6.67 -.94 8.35 -1.11 19.34 -4.14 21.96 -6.06 1.94 -1.42 1.94 -1.44 -0 -3.3
-1.89 -1.8 -2.13 -1.81 -6.64 -.24z M1131.41 472.1 c-1.7 1.87 -1.69 1.97 .17
3.33 1.95 1.42 11.75 4.68 15.09 5.02 1.01 .1 2.96 .49 4.34 .87 3.54 .97
15.02 1.45 15.52 .66 .23 -.37 -.91 -1.94 -2.54 -3.49 -2.88 -2.76 -3 -2.78
-4.97 -.99 -2.03 1.84 -2.03 1.84 -4.36 -.36 -1.43 -1.35 -2.98 -1.95 -4
-1.55 -.99 .38 -2.21 .19 -3 -.46 -.73 -.61 -1.61 -.82 -1.96 -.47 -.35 .35
-1.21 .18 -1.91 -.37 -.7 -.55 -3.38 -1.7 -5.95 -2.56 -4.53 -1.51 -4.73
-1.49 -6.42 .37z M1342.68 476.74 c-1.54 1.54 -1.93 1.58 -3.81 .41 -1.86
-1.16 -2.41 -1.01 -5.02 1.49 -2.95 2.83 -2.86 2.88 .14 3.49 3.36 .69 12.88
-.61 14.19 -1.91 .47 -.47 -.19 -1.83 -1.47 -3.02 -2.28 -2.14 -2.34 -2.15
-4.03 -.46z" data-index="3"></path>
<path fill="url(#grad4)" stroke="none" fill-rule="evenodd" d="M1845.01 239.32 c-5.36 1.71 -11.6 8.57 -13.44 14.77 -2.21 7.45 -1.96 11.74
1.07 17.81 10.83 21.73 44.43 13.93 44.34 -10.3 -.04 -10.03 -5.56 -18.43
-14.62 -22.22 -3.86 -1.61 -12.38 -1.64 -17.34 -.06z" data-index="4"></path>
<path fill="#5729e6" stroke="none" fill-rule="evenodd" d="M735.82 242.75 c13.93 .16 36.43 .16 50 -0 13.57 -.16 2.18 -.29 -25.32 -.29
-27.5 0 -38.61 .13 -24.68 .29z M751.34 304.5 c0 4.4 .18 6.08 .39 3.72 .21
-2.35 .21 -5.95 -.01 -8 -.21 -2.05 -.39 -.12 -.38 4.28z M1308.44 345.5 c-0
17.05 .14 24.17 .3 15.81 .17 -8.35 .17 -22.3 0 -31 -.17 -8.7 -.3 -1.86 -.3
15.19z M751.34 328.5 c0 4.4 .18 6.08 .39 3.72 .21 -2.35 .21 -5.95 -.01 -8
-.21 -2.05 -.39 -.12 -.38 4.28z M751.39 406.5 c0 7.15 .16 9.94 .35 6.21 .19
-3.74 .19 -9.59 -0 -13 -.19 -3.41 -.35 -.36 -.35 6.79z M986.32 406.75
c16.95 .15 44.4 .15 61 -0 16.6 -.15 2.73 -.28 -30.82 -.28 -33.55 0 -47.13
.13 -30.18 .28z M751.42 460 c0 10.73 .15 15.11 .33 9.75 .18 -5.36 .18
-14.14 0 -19.5 -.18 -5.36 -.33 -.98 -.33 9.75z M1167.77 450.72 c1.8 .22 4.5
.22 6 -.01 1.5 -.23 .03 -.41 -3.27 -.4 -3.56 .01 -4.67 .17 -2.73 .41z
M1380.44 469.75 l.06 9.75 20 .03 20 .03 -19.71 -.3 -19.71 -.3 -.34 -9.48
-.34 -9.48 .06 9.75z M712.25 479.73 c2.06 .22 5.44 .22 7.5 0 2.06 -.22 .38
-.39 -3.75 -.39 -4.12 0 -5.81 .18 -3.75 .39z M858.75 479.75 c7.29 .17 19.21
.17 26.5 0 7.29 -.17 1.33 -.31 -13.25 -.31 -14.58 0 -20.54 .14 -13.25 .31z" data-index="5"></path>
<path fill="#fefdfd" stroke="#fefdfd" stroke-width="0.80" stroke-linejoin="round" fill-rule="evenodd" d="M1506.34 368.56 c-1.4 3.06 -2.37 5.74 -2.16 5.95 .21 .21 1.57 -2.29 3.02
-5.56 1.45 -3.27 2.42 -5.95 2.16 -5.95 -.26 0 -1.62 2.5 -3.02 5.56z" data-index="6"></path>
<path fill="#2eb7ab" stroke="none" fill-rule="evenodd" d="M228.25 571.72 c1.51 .23 3.99 .23 5.5 0 1.51 -.23 .28 -.42 -2.75 -.42 -3.03
0 -4.26 .19 -2.75 .42z" data-index="7"></path>
<path fill="#070f2c" stroke="#070f2c" stroke-width="0.60" stroke-opacity="0.50" stroke-linejoin="round" fill-rule="evenodd" d="M708 360.95 l0 118.05 21.5 0 21.5 0 0 -43.5 0 -43.5 22.25 .03 22.25 .03
6.07 10.72 c3.34 5.9 14.59 25.46 25 43.47 l18.93 32.75 26.25 0 c14.44 0
26.25 -.19 26.25 -.42 0 -.23 -7.95 -12.94 -17.66 -28.25 -36.69 -57.82
-41.34 -65.26 -41.34 -66.12 0 -.48 1.56 -1.36 3.47 -1.94 5.88 -1.8 16.12
-8.04 21.95 -13.37 16.13 -14.74 23.33 -35.78 20.77 -60.72 -1.91 -18.63
-7.36 -31.04 -18.69 -42.58 -8.9 -9.06 -19.32 -14.84 -34.97 -19.38 l-9.03
-2.62 -57.25 -.35 -57.25 -.35 0 118.05z M813.2 282.11 c21.21 4.46 33.58
22.1 29.91 42.65 -2.29 12.81 -10.21 22.31 -22.86 27.41 -5.53 2.23 -6.99
2.33 -37.5 2.62 l-31.75 .31 0 -37.05 0 -37.05 28.45 0 c17.08 0 30.57 .45
33.75 1.11z M985.81 311.01 c-28.85 4.58 -49.24 19.03 -61.29 43.44 -12.97
26.27 -12.37 63.49 1.42 87.75 16.18 28.47 47.85 43.54 83.81 39.9 25.23
-2.56 46.39 -13.83 59.02 -31.43 l3.27 -4.56 -4.27 -2.41 c-2.35 -1.33 -9.22
-5.19 -15.26 -8.59 l-10.99 -6.18 -1.96 2.79 c-3.99 5.68 -10.15 10.66 -17.51
14.17 -7.46 3.57 -7.72 3.61 -20.06 3.57 -10.47 -.04 -13.4 -.4 -18 -2.24
-14.96 -5.97 -26.1 -20.42 -27.73 -35.96 l-.55 -5.25 60.64 0 60.64 0 0
-10.56 c0 -43.14 -20.8 -72.98 -57.5 -82.47 -9.12 -2.36 -25.27 -3.3 -33.69
-1.96z M1156 311.05 c-21.57 3.18 -40.55 15.05 -47.07 29.45 -7.95 17.54
-5.64 37.38 5.79 49.64 9.04 9.69 15.3 12.4 48.01 20.82 24.92 6.41 29.56
8.21 33.65 13.07 2.15 2.56 2.63 4.13 2.63 8.73 0 5.38 -.19 5.79 -4.76 10.19
-5.4 5.21 -10.08 6.96 -20.66 7.76 -14.58 1.1 -26.52 -3.66 -36.98 -14.75
-3.61 -3.83 -6.76 -6.97 -6.99 -6.97 -1.07 0 -29.16 17.21 -29.45 18.05 -1.15
3.28 15.36 19.93 25.09 25.32 28.45 15.74 74.73 13.06 97.04 -5.62 13.15
-11.01 18.52 -29.15 14.14 -47.74 -1.92 -8.14 -4.98 -13.41 -11.54 -19.83
-9.07 -8.88 -16.93 -12.25 -47.35 -20.29 -22.45 -5.94 -27.54 -7.97 -31.68
-12.69 -2.81 -3.2 -3.06 -4.02 -2.62 -8.6 .42 -4.39 1.03 -5.55 4.58 -8.7
12.97 -11.51 39.44 -8.12 53.26 6.84 2.16 2.34 4.12 4.25 4.35 4.25 .65 0
25.88 -16.11 27.32 -17.45 2.85 -2.64 -11.6 -16.6 -23.76 -22.95 -14.97 -7.82
-35.51 -11.13 -53.03 -8.55z M1268.29 373.75 c.3 57.76 .35 58.88 2.58 66.24
3.37 11.13 7.79 18.74 15.09 26.01 11.46 11.39 24.91 16.39 44.04 16.37 19.23
-.02 30.79 -4.44 43.47 -16.62 3.87 -3.71 7.14 -6.75 7.28 -6.75 .14 0 .25
4.5 .25 10 l0 10 19.5 0 19.5 0 0 -82 0 -82 -19.5 0 -19.5 0 -.01 46.75 c-0
25.71 -.43 49.34 -.95 52.51 -3.32 20.3 -18.67 33.33 -39.04 33.17 -14.7 -.12
-24.02 -5.85 -29.9 -18.39 l-2.6 -5.55 -.3 -54.25 -.3 -54.25 -19.96 0 -19.96
0 .31 58.75z M1007.47 343.53 c15.59 4.06 27.57 16.53 29.21 30.41 l.57 4.78
-7.87 .58 c-6.16 .46 -40.37 .34 -70.02 -.24 l-3.14 -.06 .93 -4.14 c2.71
-12.06 11.27 -22.82 22.23 -27.95 10.5 -4.91 18.51 -5.88 28.1 -3.38z" data-index="8"></path>
</svg>